<svg xmlns="http://www.w3.org/2000/svg" xmlns:xlink="http://www.w3.org/1999/xlink" viewBox="0 0 123.94 123.95"><defs><style>.cls-1{fill:#fbf37f;}.cls-2{fill:none;}.cls-3{fill:url(#linear-gradient);}.cls-4{fill:url(#linear-gradient-2);}.cls-5{fill:url(#linear-gradient-3);}.cls-6{fill:url(#linear-gradient-4);}.cls-7{fill:url(#linear-gradient-6);}.cls-8{fill:url(#linear-gradient-8);}.cls-9{fill:url(#linear-gradient-9);}.cls-10{fill:url(#linear-gradient-10);}.cls-11{fill:url(#linear-gradient-11);}.cls-12{fill:url(#linear-gradient-12);}.cls-13{fill:url(#linear-gradient-13);}.cls-14{fill:url(#linear-gradient-14);}.cls-15{fill:url(#linear-gradient-15);}.cls-16{fill:url(#linear-gradient-19);}.cls-17{fill:url(#linear-gradient-21);}.cls-18{fill:url(#linear-gradient-22);}.cls-19{fill:url(#linear-gradient-23);}</style><linearGradient id="linear-gradient" x1="16.98" y1="22.93" x2="101.97" y2="22.93" gradientUnits="userSpaceOnUse"><stop offset="0" stop-color="#2c2177"/><stop offset="0.12" stop-color="#312077"/><stop offset="0.25" stop-color="#3f1f76"/><stop offset="0.4" stop-color="#571c75"/><stop offset="0.56" stop-color="#781973"/><stop offset="0.72" stop-color="#a31471"/><stop offset="0.88" stop-color="#d60e6e"/><stop offset="1" stop-color="#ff0a6c"/></linearGradient><linearGradient id="linear-gradient-2" x1="16.98" y1="19.37" x2="101.97" y2="19.37" xlink:href="#linear-gradient"/><linearGradient id="linear-gradient-3" x1="16.98" y1="19.38" x2="101.97" y2="19.38" xlink:href="#linear-gradient"/><linearGradient id="linear-gradient-4" x1="16.98" y1="54.78" x2="101.97" y2="54.78" xlink:href="#linear-gradient"/><linearGradient id="linear-gradient-6" x1="16.98" y1="54.78" x2="101.97" y2="54.78" xlink:href="#linear-gradient"/><linearGradient id="linear-gradient-8" x1="16.98" y1="23.42" x2="101.97" y2="23.42" xlink:href="#linear-gradient"/><linearGradient id="linear-gradient-9" x1="16.98" y1="42.43" x2="101.97" y2="42.43" xlink:href="#linear-gradient"/><linearGradient id="linear-gradient-10" x1="16.98" y1="61.51" x2="101.97" y2="61.51" xlink:href="#linear-gradient"/><linearGradient id="linear-gradient-11" x1="16.98" y1="61.43" x2="101.97" y2="61.43" xlink:href="#linear-gradient"/><linearGradient id="linear-gradient-12" x1="16.98" y1="72.44" x2="101.97" y2="72.44" xlink:href="#linear-gradient"/><linearGradient id="linear-gradient-13" x1="16.98" y1="59.42" x2="101.97" y2="59.42" xlink:href="#linear-gradient"/><linearGradient id="linear-gradient-14" x1="16.98" y1="68.61" x2="101.97" y2="68.61" xlink:href="#linear-gradient"/><linearGradient id="linear-gradient-15" x1="16.98" y1="59.45" x2="101.97" y2="59.45" xlink:href="#linear-gradient"/><linearGradient id="linear-gradient-19" x1="16.98" y1="71.05" x2="101.97" y2="71.05" xlink:href="#linear-gradient"/><linearGradient id="linear-gradient-21" x1="16.98" y1="59.17" x2="101.97" y2="59.17" xlink:href="#linear-gradient"/><linearGradient id="linear-gradient-22" x1="16.98" y1="83.1" x2="101.97" y2="83.1" xlink:href="#linear-gradient"/><linearGradient id="linear-gradient-23" y1="61.97" x2="123.94" y2="61.97" gradientUnits="userSpaceOnUse"><stop offset="0" stop-color="#ff0a6c"/><stop offset="1" stop-color="#4a3cdb"/></linearGradient></defs><title>coin image_1</title><g id="Layer_2" data-name="Layer 2"><g id="Layer_1-2" data-name="Layer 1"><circle class="cls-1" cx="61.97" cy="61.97" r="61.44"/><path class="cls-2" d="M54.07,70.54c.38.85,2.46,2.48,3.43,3.31a14.14,14.14,0,0,0,2.86,2.06,5.27,5.27,0,0,0,2.79.46A5.22,5.22,0,0,0,66,75.88h0c.61-.48,3.2-2.54,3.72-2.94A20.09,20.09,0,0,0,72,71.06c.51-.57.61-1.92.79-3.33s.35-4,.49-5.13a7.74,7.74,0,0,0-.4-2.9c-.17-.66-.53-2.32-.21-3a16.31,16.31,0,0,0,.87-3.26,11.63,11.63,0,0,0-.42-3.69c-.27.1-.18.61-.88.92a7.42,7.42,0,0,0-.07-2.55c-.16-1.24-.55-2-.68-2a4.7,4.7,0,0,1-1.36,1.89c.45-.32.66-1.78,0-2.22a1.3,1.3,0,0,1-.53.92s.3-.49,0-.79c-.49.29-1.88,1-2.18,2.17a2.56,2.56,0,0,1,.16-1.79,5.82,5.82,0,0,1-1.38,1.24c-.52.38-.65.95-.37,1.28-.85-.4-.23-1.52-.23-1.52a1.6,1.6,0,0,0-1,.24,21.17,21.17,0,0,1-3.63,2c-1.51.56-2.69.5-3.2-.11.32.2.73.17,1.37-.2s-1.6-.61-2.12-.27a10.08,10.08,0,0,1-2,1,1.88,1.88,0,0,0,.68-.75c.21-.39-.67-.1-1,.38a5.66,5.66,0,0,1-1.9,1.73.61.61,0,0,0-.11.21c-.13.39,0,3,0,3.92a10.64,10.64,0,0,0,.06,1.73c2.52-.31,7.22-.35,7.88.66s.42,2.46.48,4,0,4,.16,4.37.09,1.29.9,1.4.89-.88.81-1.43A14.26,14.26,0,0,1,63,63.49c0-1.87.28-2.47.26-3.3a4.13,4.13,0,0,1,.08-1.66A2.73,2.73,0,0,1,64.85,57a6,6,0,0,1,1.54-.33,9.86,9.86,0,0,1,2.83,0,4.92,4.92,0,0,0,1.48.16c.42,0,.42.16.28.25a4.61,4.61,0,0,1-1.77-.15,6.13,6.13,0,0,0-2.78,0,4.89,4.89,0,0,0-2.2.71,2.1,2.1,0,0,0-.87,1.76,9.9,9.9,0,0,1,0,2,20,20,0,0,0-.2,2.53c0,.54.33,2,.27,2.5s-.05.71-.17.87l0,0a1.21,1.21,0,0,1,.64-.11c.67,0,.53.23.75.31s.28-.07.24-.45.11-.75,0-1-.45-.28-.34-.49.48.18.56.36a.93.93,0,0,1,.12.5,4,4,0,0,0,0,.59c0,.14.21.18.13.39s-.14.46-.46.46-.31-.06-.6-.27-.52-.11-.43.12.33.07.46.09.09.29-.25.32a7.38,7.38,0,0,1-1.64.24c-1.1.05-1.48-.06-1.66-.31s-.09-.36-.7-.44-.82-.21-.62-.74a6.12,6.12,0,0,0,.31-.94c.07-.3.47-.28.54-.42a3.44,3.44,0,0,0,.37-2A11.44,11.44,0,0,0,60.07,60a.37.37,0,0,0-.08-.15l-.09,0a4,4,0,0,0-1.27-.94,1.78,1.78,0,0,1,.48.64c.11.22,0,.18.22.36s.43.42.21.47-.24-.41-.64-.41a16.85,16.85,0,0,1-2.13.23,2.83,2.83,0,0,1-1.54-.45c-.29-.22-.43-.41-.36-.46s.45.28,1,.54a1.4,1.4,0,0,0,.46.12,1.39,1.39,0,0,1-.66-1.28,5.07,5.07,0,0,0-1.29.66,2.7,2.7,0,0,1-1.16.57c-.33,1-.12,4.88-.18,6.17s.13,2.08.05,2.66S53.69,69.69,54.07,70.54ZM65,60.35c-.23-.05,0-.3.21-.47s.11-.14.22-.36a1.57,1.57,0,0,1,.48-.64,3.91,3.91,0,0,0-1.27.94c-.14.1-.31.07-.17-.1A5.22,5.22,0,0,1,67.36,58a4.17,4.17,0,0,1,2.3.28,2.94,2.94,0,0,1,1.22.88c.2.3.29.49.63.45s.53.17,0,.22-.83-.2-1.4-.57a5.13,5.13,0,0,0-1.3-.66,1.36,1.36,0,0,1-.65,1.28,1.4,1.4,0,0,0,.46-.12c.55-.26.93-.59,1-.54s-.07.24-.37.46a2.79,2.79,0,0,1-1.53.45,17,17,0,0,1-2.14-.23C65.19,59.94,65.11,60.38,65,60.35ZM59,70.39c.35.07.4,0,.58-.15a2.41,2.41,0,0,1,1.51-.54c.56,0,.76.3,1.16.3s.63-.3,1.21-.3a3.91,3.91,0,0,1,1.45.45,2.22,2.22,0,0,0,1.42.14c-.66.62-1.25,1.28-1.62,1.59s-.46.4-1.41.46a12.65,12.65,0,0,1-2.32,0c-.58-.08-.9-.15-1.17-.59a2.86,2.86,0,0,0-1-1C58.31,70.45,58.46,70.29,59,70.39Z"/><path class="cls-2" d="M25.85,57a.07.07,0,0,0,.06,0l1.28-2.17a.17.17,0,0,0,0-.1l-1.28-2.17a.1.1,0,0,0-.06-.05.1.1,0,0,0-.07,0L22.22,54.7a.1.1,0,0,0,0,.16L25.78,57A.06.06,0,0,0,25.85,57Zm-3.28-2.38h4.24v.24H22.57Z"/><path class="cls-2" d="M56.24,58.53l-.24,0a1,1,0,0,0,.85,1.14,1.16,1.16,0,0,0,1-1.09l-.47-.09c.18.42-.16.74-.58.73s-.56-.3-.48-.73Z"/><path class="cls-2" d="M59.76,71.19c.4.1.53.33.8.49s.34.11.79.2a2.29,2.29,0,0,0,.8,0c.24,0,.63-.06,1.11-.07a5.42,5.42,0,0,0,1.39-.24,1.37,1.37,0,0,0,.43-.38c.14-.18.61-.54.41-.53s-.54,0-1.16.14a7.16,7.16,0,0,1-1.23,0c-.47,0-.42.25-.91.25a5,5,0,0,1-1.09-.22c-.41-.08-.31.07-.79.07s-.69-.3-.77-.12A.33.33,0,0,0,59.76,71.19Z"/><path class="cls-2" d="M95.92,56.72a.1.1,0,0,0,.12,0,.1.1,0,0,0,0-.12l-1-1.64a.34.34,0,0,1,0-.34l1-1.64a.1.1,0,0,0,0-.12.09.09,0,0,0-.07,0l0,0L93.47,54.7a.11.11,0,0,0,0,.08.08.08,0,0,0,0,.07Zm-2.24-2.06h1.17v.24H93.68Z"/><path class="cls-2" d="M58.13,59.85c.41-.1.53-.14.68-.1s0-.22-.19-.35a2.56,2.56,0,0,1-.48-.42,1.65,1.65,0,0,1-1,1A4.57,4.57,0,0,0,58.13,59.85Z"/><path class="cls-2" d="M63.85,21.63l-1.65,1a.32.32,0,0,1-.33,0l-1.65-1,0,0a.12.12,0,0,0-.07,0,.1.1,0,0,0,0,.12L62,24.21a.09.09,0,0,0,.15,0L64,21.77a.09.09,0,0,0,0-.12A.08.08,0,0,0,63.85,21.63ZM62.15,24h-.23V22.84h.23Z"/><path class="cls-2" d="M69.85,80.58c-.12-.27.05-.48-.09-1.19a27.21,27.21,0,0,1-.23-4.1l0-.48a12,12,0,0,1-3.14,2.37,13,13,0,0,1-3.91,1c-1.49.22-1.4,1-2.37,1s-1.59-1-2.4-1.25-1.52.15-2,1.11a13.79,13.79,0,0,0-.8,3.41c-.14,1.08-.41,2.26-1.8,2.66a14.51,14.51,0,0,0,6.17,3,12.87,12.87,0,0,0,5.13.09,13.79,13.79,0,0,0,4.76-1.89,6.23,6.23,0,0,0,2-2.7c.35-1,0-1.06-.18-1.35a9.88,9.88,0,0,0-.8-1A2.18,2.18,0,0,1,69.85,80.58Zm-6,2.09c-.55.56-1.28,1.42-1.94,1.44A3.31,3.31,0,0,1,60,83c-.23-.3-.19-.35,0-.2,1,.76,1.51,1.14,2.11.88a6.84,6.84,0,0,0,1.61-1.43C64,82,64.39,82.1,63.84,82.67Z"/><path class="cls-2" d="M50.91,60.54A2.78,2.78,0,0,0,50.6,59a5.22,5.22,0,0,0-2.94-2.67c-1-.37-2,.9-2.25,1.33a2.75,2.75,0,0,0-.33,1.13,2.58,2.58,0,0,0,0,1,2.68,2.68,0,0,0,.55.93,10.29,10.29,0,0,1,1.2,2.11c.11.49.18.79.27,1.23a2.43,2.43,0,0,0,.45,1.08,6.05,6.05,0,0,0,1.16,1.16c.48.38.83.6,1.14.52a2,2,0,0,0,1.07-.9,8,8,0,0,0-.09-2.86,2.8,2.8,0,0,1-.12-1.43A4.14,4.14,0,0,0,50.91,60.54Zm-3.69-3.08c-.39-.16-.46,0-.67.11a2.23,2.23,0,0,0-.69.8,1.91,1.91,0,0,0-.21,1.22c0,.36,0,.56-.1.48s0-.41-.08-.86a1.26,1.26,0,0,1,.34-1.2c.41-.55.57-.87,1.11-.9s.46.07,1,.49a15,15,0,0,0,1.73,1,1.06,1.06,0,0,1,.67,1.08,3.91,3.91,0,0,1-.55,1.33c-.21.39.18.72-.06.75-.48,0-.38-.61-.2-.88a2.52,2.52,0,0,0,.5-.94c.12-.45,0-.39-.08-.66s-.19-.29-.58-.56a10.38,10.38,0,0,0-1-.62A10.56,10.56,0,0,0,47.22,57.46ZM50,63.59c-.14-.17-.33-.19-.62-.35a4,4,0,0,1-1-.73,1.36,1.36,0,0,1-.53-1.17c0-.57,0-1.49,0-1.74s-.46-.43-.24-.51.28.19.36.29a1,1,0,0,1,0,.81,4.14,4.14,0,0,0,.06,1.22c0,.16.13.16.17.19s0,0,.09-.11.06-.22.13-.38a1.26,1.26,0,0,1,.39-.48c.16-.13.5-.1.3,0a1.33,1.33,0,0,0-.52.51c-.15.23-.27.44-.21.56s-.06.27,0,.46.22.29.53.6.66.26.88.39.57.36.53.56S50.16,63.77,50,63.59Z"/><path class="cls-2" d="M28.32,89.92a10.7,10.7,0,0,0-1.26-2.29,30,30,0,0,1-1.59-3c-.16-.42-.76-1.88-.85-2.17a3.1,3.1,0,0,1-.22-1.3,14.17,14.17,0,0,1,1.29-1.71V78.38a2,2,0,0,1,.18-.71,1,1,0,0,0,.07-.51,1.1,1.1,0,0,1,.09-.58,1.78,1.78,0,0,0,.16-.56,2.84,2.84,0,0,1,.2-.9,4.08,4.08,0,0,1,.75-.9,4.68,4.68,0,0,1,0-1.12,3.56,3.56,0,0,1,.7-1.46c.37-.5,2.27-2.65,2.27-2.65s0-.77,0-1.07.07-1,.09-1.3a.86.86,0,0,1,.46-.71c.24-.08.52,0,.82.45a1.84,1.84,0,0,1,.13,1.18l.13-.09s.22-.12.53.18a.9.9,0,0,1,0,1.08c-.16.32-.68,1.16-.68,1.16,0,.22,0,2.23-.05,2.5a3,3,0,0,0,.16,1.2c.16.44.62,3.16.62,3.16a11.63,11.63,0,0,1,1.1.79c.29.28.52.27.49.87a.8.8,0,0,1-.49.76l.07.4a9.58,9.58,0,0,1,.94,1.54c.07-.38.29-.71.25-1s-.51-2.24-.54-2.82a10.9,10.9,0,0,1,.1-2.75c.2-.53.86-1.3,1.11-1.13a1.32,1.32,0,0,1,.83,1.14,33.42,33.42,0,0,0,.36,3.71c.18,1.27.89,2.41.89,3.27s-.29,3.28-.29,3.28a9.75,9.75,0,0,0,1.1,0,23.52,23.52,0,0,0,2.76-.51,38.4,38.4,0,0,0,3.9-.7c.63-.24.3-.56.79-.56s.72.2,1.41.2a2.08,2.08,0,0,0,.93-.13c.6-.13.48-.45.64-.38a1.07,1.07,0,0,0,.47.18,7.2,7.2,0,0,0,1.54-.36c.47-.19.28-.28.54-.4s.44.06.83-.18A2.55,2.55,0,0,0,53,80.44l-.11,0C52.4,80.24,43.17,76,42.28,75s-5.21-5.49-6.69-9.39a31.16,31.16,0,0,1-2.36-14.4,31.34,31.34,0,0,1,5.28-14.73c1.35-1.68,10.37-9.66,23.81-9.66s22,9.76,24.77,14A25,25,0,0,1,91,56.64,27.85,27.85,0,0,1,83.75,73c-4.17,4.68-12,8.37-12.75,8.69a.73.73,0,0,0,.3,0c.47,0,.44-.23.87-.14s.25.27.4.49.13.09.72.09.42,0,.63.11a2.24,2.24,0,0,1,.45.49L82.26,84c2.51.41,4.72.9,6.41,2.81s3.56,6.78,4.57,9.34a18,18,0,0,1,.68,2.22,48.47,48.47,0,1,0-66.63-2.59,32.41,32.41,0,0,0,1.22-3.49A5.31,5.31,0,0,0,28.32,89.92ZM97.09,52.29a.32.32,0,0,1,.25,0l3.56,2.18a.33.33,0,0,1,0,.56l-3.56,2.17a.26.26,0,0,1-.17.05h-.08a.32.32,0,0,1-.21-.15L95.61,55a.34.34,0,0,1,0-.34l1.27-2.17A.32.32,0,0,1,97.09,52.29Zm-3.76,2.23,2.45-1.86a.31.31,0,0,1,.41,0,.32.32,0,0,1,.07.41l-1,1.65a.17.17,0,0,0,0,.1l1,1.64a.34.34,0,0,1-.07.42A.34.34,0,0,1,96,57a.31.31,0,0,1-.2-.07L93.33,55a.33.33,0,0,1,0-.52ZM64.16,21.91,62.3,24.35a.3.3,0,0,1-.26.13.32.32,0,0,1-.27-.13l-1.86-2.44a.32.32,0,0,1,0-.42.32.32,0,0,1,.41-.07l1.65,1a.07.07,0,0,0,.09,0l1.65-1a.34.34,0,0,1,.42.07A.33.33,0,0,1,64.16,21.91Zm-4.58-1.57,2.18-3.56a.33.33,0,0,1,.28-.15.35.35,0,0,1,.28.15l2.17,3.56a.34.34,0,0,1,0,.26.37.37,0,0,1-.15.2L62.2,22.08a.32.32,0,0,1-.16,0,.33.33,0,0,1-.17,0L59.7,20.8a.32.32,0,0,1-.12-.46ZM26.8,52.67a.32.32,0,0,1,.42,0l2.45,1.86a.32.32,0,0,1,0,.52L27.22,56.9A.31.31,0,0,1,27,57a.4.4,0,0,1-.22-.08.33.33,0,0,1-.06-.42l1-1.64a.17.17,0,0,0,0-.1l-1-1.65A.32.32,0,0,1,26.8,52.67Zm-4.86,2.11a.32.32,0,0,1,.16-.28l3.56-2.18a.31.31,0,0,1,.25,0,.28.28,0,0,1,.2.15l1.28,2.17a.34.34,0,0,1,0,.34l-1.28,2.17a.28.28,0,0,1-.2.15h-.08a.26.26,0,0,1-.17-.05L22.1,55.06A.32.32,0,0,1,21.94,54.78Z"/><path class="cls-2" d="M66.35,59.85a4.57,4.57,0,0,0,1,.11,1.63,1.63,0,0,1-1-1,2.29,2.29,0,0,1-.49.42c-.22.13-.33.38-.18.35S66,59.75,66.35,59.85Z"/><path class="cls-2" d="M67.64,59.71a1,1,0,0,0,.85-1.14l-.24,0h-.07c.08.43-.06.72-.48.73s-.76-.31-.58-.73a3.89,3.89,0,0,0-.47.09A1.16,1.16,0,0,0,67.64,59.71Z"/><path class="cls-2" d="M60,70.57a7.07,7.07,0,0,0,1-.08,8,8,0,0,0,1.17.17c.49,0,.72-.22,1.19-.22a3.3,3.3,0,0,1,1,.06c.53.1.62-.07.62-.07-.54-.16-.7-.42-1.22-.42s-.61.21-1,.21A4.72,4.72,0,0,1,61.39,70c-.45-.13-.78.16-1,.25s-.36.11-.44.08S59.77,70.51,60,70.57Z"/><path class="cls-2" d="M31.35,72.53a21.62,21.62,0,0,0,.07-2.29c0-.14-.58.35-.7.57a8.58,8.58,0,0,0-.41,1,3.34,3.34,0,0,1-.65.82c-.1.14-.07.24-.1.64s.18.43.3.68a3.43,3.43,0,0,1,0,1,2,2,0,0,1,.72.43c.47.39,1.49,1.07,1.49,1.07v0s-.27-1.83-.44-2.33a3.13,3.13,0,0,0-.44-.89C31.08,73,31.26,72.88,31.35,72.53Z"/><path class="cls-2" d="M37,86.26a7.6,7.6,0,0,1,.17-2.8,6.45,6.45,0,0,0-.1-3,17.39,17.39,0,0,1-.75-2.83c-.1-.74-.2-2.15-.23-2.86s-.34-1-.71-1.13-.91.84-1,1.21A12.88,12.88,0,0,0,34.52,78a8.66,8.66,0,0,1,.42,2.31c-.1.54-.24.57-.25.9a1.75,1.75,0,0,0,.12.82c.13.28.46.58.22.76s-.24,0-.39-.48,0-.5-.23-1a9.22,9.22,0,0,0-.6-1.15c-.19-.34-.49-.67-.49-.82s-.56.1-1.38-.31-1.16-.91-1.71-1.12-.76,0-1.13-.1c-.08.52-.2,1.06-.2,1.06a8.15,8.15,0,0,0,1.16,1.32,9.61,9.61,0,0,1,1.58,1.56.61.61,0,0,1-.16.84c-.36.35-1.15.17-1.64-.18s-1-.83-1.39-1.17a2.42,2.42,0,0,0-.56-.4s0,.07-.24.24-.4.4-.73.37-.5-.27-.24-.21a.69.69,0,0,0,.71-.16c.16-.15.25-.27.25-.32s-.06-.08-.25-.33,0-.38.09-.38.09.27.43.55.14.21.41.34a3.57,3.57,0,0,1,.63.54,2,2,0,0,0,.6.49l.81.42a1,1,0,0,0,1,0c.2-.16.26-.49-.09-.81s-.93-.93-1.63-1.6-1-1.28-1.37-1.64-.43-.49-.95-.52-.8,2-1.15,2.53a2.2,2.2,0,0,0-.16,2,8.56,8.56,0,0,0,1.63,2.32A13.21,13.21,0,0,1,30,88.63a7.43,7.43,0,0,1,0,4.89c-.31,1-.8,2.37-1.28,3.76a48.32,48.32,0,0,0,5,4.12c.7-3.07,1.36-6.36,1.66-7.69C36,91.22,37.17,87.45,37,86.26Z"/><path class="cls-2" d="M53.3,76.58c0-1.15,0-4.4,0-4.4a5.17,5.17,0,0,0-.56-.67,5.5,5.5,0,0,1-1.46-2.38c0-.35-.07-.76-.09-1.2A18,18,0,0,1,51,66a2.2,2.2,0,0,1-.91.8c-.42.22-.85,0-1.62-.45A5.59,5.59,0,0,1,47,64.48a15.78,15.78,0,0,1-.45-1.8A17.88,17.88,0,0,0,45,60.27a2,2,0,0,1-.21-1.53,4.79,4.79,0,0,1,1.08-2,2.19,2.19,0,0,1,1.85-.73,2,2,0,0,1,0-.73c0-.4.14-.34.27-.78a4.54,4.54,0,0,0-.22-2.32,2.32,2.32,0,0,0-1.32-1.59c-.48-.3-.64-.31-.58-.35a2.94,2.94,0,0,0,.39-.26,2.87,2.87,0,0,0,.09-.44A10.72,10.72,0,0,1,47,48.14c.43-.77,1.2-1.29,1.23-1.74s-1.73-1-1.06-1c1.8.2,2-1.1,2-1.1s-.45-.05-.38-.29a1.45,1.45,0,0,0,.63-.09l-.18-.26a16.62,16.62,0,0,1-.77-1.93c-.23-.65-.72-1.5-.08-1.58s1.14.32,2,.6,1.56.58,1.56.58a4.13,4.13,0,0,0,.66-.59,4.85,4.85,0,0,1,2.19-1.51,7.23,7.23,0,0,1,2.17-.6c.2,0,.3.12.31-.16s-.65-.56-.52-1.15c.27.42.68.44,1.48.8a1.91,1.91,0,0,0,1.29.18,1,1,0,0,0,.06-.37c0-.19-.14-.9.16-1.21.07.25.13.25.37.43A9.86,9.86,0,0,1,61,38a.3.3,0,0,0,.32-.19,4.2,4.2,0,0,0,.19-1.51,1.45,1.45,0,0,0-.19-.62.7.7,0,0,1,.44.1,6.74,6.74,0,0,1,1.23,1,9.84,9.84,0,0,1,1.78,2.16,3.41,3.41,0,0,0-.13-1.17,1.53,1.53,0,0,1,1,.49,13,13,0,0,1,1.31,1.41,1.5,1.5,0,0,0,0-.49c0-.34,0-1,0-1.41.26.15.41.95.94,1.45s1.44.67,2.07,1.33.5,1.12.5,1.12l.43,0a2.77,2.77,0,0,1,.75-1.07,1.38,1.38,0,0,0,.21,1s.86,0,2.12-.18A5.19,5.19,0,0,0,75.68,41a9.68,9.68,0,0,1-.57,1.33c-.41.85-1.06,2.12-1.06,2.12a.6.6,0,0,1,.13.08,10.88,10.88,0,0,1,1.71,1c.6.51.86.75.93,1.13a2.89,2.89,0,0,0,.24.67s-.24,0-.5-.4a1.91,1.91,0,0,0-.93-.55l.46.65a4.4,4.4,0,0,1,.59,1,8.47,8.47,0,0,1,.93,2.21c.3,1.15.33,1.41.17,1.58s-.47-.36-.59-.69-.77.48-.53,1.35a7.06,7.06,0,0,1,.41,2.29A4.6,4.6,0,0,1,76.65,56s0,.08.15.08a3.07,3.07,0,0,1,.9.08,3.41,3.41,0,0,1,1.51,1.37c.66,1,.42,1,.43,1.69a3.28,3.28,0,0,1-.76,1.88,9.56,9.56,0,0,0-1.12,1.92,5.29,5.29,0,0,1-.38,1.58,7.24,7.24,0,0,1-1.73,1.86,1.55,1.55,0,0,1-1.59.28,3.78,3.78,0,0,1-.74-.57s-.47,3.16-.58,3.93-.35,1-2.71,3.08A27.7,27.7,0,0,0,69.89,77,22.26,22.26,0,0,0,86.23,56c1-19.44-17.43-23.79-22.16-23.69-2.27.05-18.23-1.53-24.37,13.44-5.51,13.46,1.77,24.53,3.21,26.51.07.11.15.21.23.32s-.07-.09-.23-.32c-10.72-14.23-4.65-26.49-1.18-32.15s11.36-9,21.42-9.15,17.5,6.38,20.63,11.6,4.91,11.23,1.9,21.55C82.81,74,71,77.6,69.92,77.91a13.57,13.57,0,0,0,.34,2.68,3.16,3.16,0,0,0,.33.71C77.73,79.07,84.3,72,86.69,68.12S90.56,57.44,89.52,51,84.7,39,80.71,35.28s-12.09-7-18.91-7a36.63,36.63,0,0,0-16.94,4.63c-4.17,2.21-10.31,8.93-10.71,18.73S37.65,68,41.27,72.75c3.31,4.35,10.55,7,11.76,7.4A28.61,28.61,0,0,0,53.3,76.58Z"/><path class="cls-2" d="M62.34,42.39a.86.86,0,0,0-.87-.88.9.9,0,0,0-1,.92.87.87,0,0,0,.9.84A1,1,0,0,0,62.34,42.39Z"/><path class="cls-2" d="M33.17,78.69c.51.29.47-.24.55-.39s.05-.22-.17-.43a3.23,3.23,0,0,0-.77-.53c-.2-.08-.32,0-.38.26S32.63,78.38,33.17,78.69Z"/><path class="cls-2" d="M29.36,74.82l.12-.09a1.51,1.51,0,0,0-.07-.66,1.33,1.33,0,0,1-.14-.71c0-.42-.06-.74.19-1a2.92,2.92,0,0,0,.81-1c.12-.33.13-.61.23-.8a3.25,3.25,0,0,1,.77-.68,5.21,5.21,0,0,0,1-1.58c.13-.42-.3-.87-.48-.52-.11.19.4.26.1.64s-.41.42-.56.43-.37-.23-.57,0-1.4,1.47-1.74,2a6.19,6.19,0,0,0-.87,3.27c.24.06.61,0,.72.23A2.08,2.08,0,0,0,29.36,74.82Z"/><path class="cls-2" d="M27.72,77.7c.48.1,1,.94,1,.94l.09-.34a3.17,3.17,0,0,0,0-.52,3.43,3.43,0,0,1-1.12-.68c-.35-.29-.47-1.12-.08-.45a2.3,2.3,0,0,0,1.33,1c.31.12.29,0,.76,0a1,1,0,0,1,1,.35,10.18,10.18,0,0,0,1.84,1c.26.1.33,0,.21-.19a7.58,7.58,0,0,1-.73-.92c-.13-.27,0-.33.28-.73s-1-1-1.65-1.42a11.94,11.94,0,0,0-1.37-.66,3.71,3.71,0,0,0-1.43-.59c-.37,0-.39,0-.56.54a3.13,3.13,0,0,0-.15,1,16.11,16.11,0,0,0-.25,1.8C27.2,77.54,27.23,77.6,27.72,77.7Z"/><path class="cls-2" d="M31.43,67.78l.06-.2a3.79,3.79,0,0,0-.09-1,4.87,4.87,0,0,0-.33-.43c-.12-.15-.27,0-.33,0-.31.18-.09,1-.09,1.48s-.18.34-.18.49,0,.69,0,.69Z"/><path class="cls-2" d="M97.15,57a.06.06,0,0,0,.07,0l3.56-2.17a.09.09,0,0,0,0-.08.08.08,0,0,0,0-.08l-3.56-2.17,0,0h0a.1.1,0,0,0-.06.05l-1.28,2.17a.09.09,0,0,0,0,.1L97.09,57A.07.07,0,0,0,97.15,57Zm-1-2.38h4.23v.24H96.19Z"/><path class="cls-2" d="M79.27,58.18a16.35,16.35,0,0,0-1.12-1.58,3.43,3.43,0,0,0-1.23-.36c-.13,0-.58,0-2,1.3a6.69,6.69,0,0,0-1.33,1.93c-.23.79.09,1.13.18,2a13.4,13.4,0,0,1-.2,2.64,5.47,5.47,0,0,0,.06,2,1.16,1.16,0,0,0,.88.63,2.29,2.29,0,0,0,1.15-.42,4.16,4.16,0,0,0,1.08-1A3.27,3.27,0,0,0,77.35,64a4.8,4.8,0,0,1,.41-1.55c.21-.33,1.53-2.4,1.64-2.64s0-.47,0-.82A1,1,0,0,0,79.27,58.18Zm-2.73,1.6a6.27,6.27,0,0,0,.1.95,2.09,2.09,0,0,1-.35,1.53c-.41.56-.84.67-1.41,1.08s-.37.23-.3.47-.41.26-.45,0a.4.4,0,0,1,.2-.44c.13-.09.36-.15.61-.28a2.75,2.75,0,0,0,.82-.74c.32-.39.29-.44.12-.82a2.28,2.28,0,0,0-.52-.79c-.19-.17-.32-.11-.19-.22s.28-.17.59.28a9.05,9.05,0,0,1,.54.86l.07-.19a5.74,5.74,0,0,0,0-1.08,5,5,0,0,0,0-.87c0-.26-.06-.47.12-.52a.17.17,0,0,1,.22.21C76.69,59.5,76.55,59.49,76.54,59.78Zm2.3-.5c-.08.45-.08.54-.21.71s0-.37.07-.76,0-.31-.1-.6a2.79,2.79,0,0,0-.4-.86,1.17,1.17,0,0,0-.65-.49,2.77,2.77,0,0,0-.75.33,15.09,15.09,0,0,1-1.33.79,2.19,2.19,0,0,0-1.08,1c-.21.41.19,1,.36,1.24s.45.77.27,1-.36.27-.39.12.09-.17.09-.4a1,1,0,0,0-.22-.58,1.33,1.33,0,0,1-.33-.66,3,3,0,0,1,0-.9,2.23,2.23,0,0,1,1.06-1,18.25,18.25,0,0,0,1.82-1,.71.71,0,0,1,1,.09,3,3,0,0,1,.66.93A1.67,1.67,0,0,1,78.84,59.28Z"/><path class="cls-2" d="M62,21.87a.07.07,0,0,0,.09,0l2.18-1.27s0,0,0-.06a.08.08,0,0,0,0-.07l-2.17-3.56a.12.12,0,0,0-.08-.05.09.09,0,0,0-.08.05h0l-2.18,3.56a.15.15,0,0,0,0,.07.13.13,0,0,0,0,.06Zm-.07-4.61h.23V21.5h-.23Z"/><path class="cls-2" d="M73.33,43.83a7.43,7.43,0,0,0,1.11-2.14,20.86,20.86,0,0,1-8.47.09c-3.8-1-4.68-2.28-4.68-2.28s-4.88,4.26-12.19,1.39c0,0,.75,2.09.91,2.36s5.46,1.24,10.89,1.34A77.16,77.16,0,0,0,73.33,43.83ZM60.12,42.47a1.13,1.13,0,0,1,1.26-1.11,1.08,1.08,0,0,1,1.13,1.07,1.2,1.2,0,0,1-1.23,1.06A1.08,1.08,0,0,1,60.12,42.47Z"/><path class="cls-2" d="M26.94,53l1,1.64a.34.34,0,0,1,0,.34l-1,1.64a.1.1,0,0,0,0,.12.09.09,0,0,0,.12,0l2.45-1.87a.08.08,0,0,0,0-.07.11.11,0,0,0,0-.08l-2.45-1.86a.08.08,0,0,0-.12,0,.1.1,0,0,0,0,.12Zm1.21,1.69h1.17v.24H28.15Z"/><path class="cls-3" d="M63.73,21.42l-1.65,1a.07.07,0,0,1-.09,0l-1.65-1a.32.32,0,0,0-.41.07.32.32,0,0,0,0,.42l1.86,2.44a.32.32,0,0,0,.27.13.3.3,0,0,0,.26-.13l1.86-2.44a.33.33,0,0,0,0-.42A.34.34,0,0,0,63.73,21.42Zm.24.35-1.86,2.44a.09.09,0,0,1-.15,0L60.1,21.77a.1.1,0,0,1,0-.12.12.12,0,0,1,.07,0l0,0,1.65,1a.33.33,0,0,0,.33,0l1.65-1a.08.08,0,0,1,.12,0A.09.09,0,0,1,64,21.77Z"/><path class="cls-4" d="M61.87,22.08a.33.33,0,0,0,.17,0,.32.32,0,0,0,.16,0l2.18-1.28a.37.37,0,0,0,.15-.2.34.34,0,0,0,0-.26l-2.17-3.56a.35.35,0,0,0-.28-.15.33.33,0,0,0-.28.15l-2.18,3.56a.32.32,0,0,0,.12.46Zm-2.09-1.61L62,16.91h0a.09.09,0,0,1,.08-.05.12.12,0,0,1,.08.05l2.17,3.56a.08.08,0,0,1,0,.07s0,0,0,.06l-2.18,1.27a.07.07,0,0,1-.09,0L59.82,20.6a.13.13,0,0,1,0-.06A.15.15,0,0,1,59.78,20.47Z"/><rect class="cls-5" x="61.92" y="17.26" width="0.24" height="4.24"/><path class="cls-6" d="M95.78,56.9A.31.31,0,0,0,96,57a.34.34,0,0,0,.21-.08.34.34,0,0,0,.07-.42l-1-1.64a.17.17,0,0,1,0-.1l1-1.65a.32.32,0,0,0-.07-.41.31.31,0,0,0-.41,0l-2.45,1.86a.33.33,0,0,0,0,.52Zm-2.31-2.2,2.45-1.86,0,0a.09.09,0,0,1,.07,0,.1.1,0,0,1,0,.12l-1,1.64a.34.34,0,0,0,0,.34l1,1.64a.1.1,0,0,1,0,.12.1.1,0,0,1-.12,0l-2.45-1.87a.08.08,0,0,1,0-.07A.11.11,0,0,1,93.47,54.7Z"/><rect class="cls-6" x="96.19" y="54.66" width="4.24" height="0.24"/><path class="cls-7" d="M95.61,55l1.27,2.17a.32.32,0,0,0,.21.15h.08a.26.26,0,0,0,.17-.05l3.56-2.17a.32.32,0,0,0,0-.56l-3.56-2.18a.32.32,0,0,0-.25,0,.32.32,0,0,0-.21.15l-1.27,2.17A.34.34,0,0,0,95.61,55Zm.2-.22,1.28-2.17a.1.1,0,0,1,.06-.05h0l0,0,3.56,2.17a.08.08,0,0,1,0,.08.09.09,0,0,1,0,.08L97.22,57a.06.06,0,0,1-.07,0,.07.07,0,0,1-.06,0l-1.28-2.17A.09.09,0,0,1,95.81,54.73Z"/><rect class="cls-6" x="93.68" y="54.66" width="1.17" height="0.24"/><rect class="cls-8" x="61.92" y="22.84" width="0.24" height="1.17"/><path class="cls-9" d="M62.51,42.43a1.08,1.08,0,0,0-1.13-1.07,1.13,1.13,0,0,0-1.26,1.11,1.08,1.08,0,0,0,1.16,1A1.2,1.2,0,0,0,62.51,42.43Zm-2,0a.9.9,0,0,1,1-.92.86.86,0,0,1,.87.88,1,1,0,0,1-1,.88A.87.87,0,0,1,60.49,42.43Z"/><path class="cls-10" d="M76.5,59c-.18,0-.17.26-.12.52a5,5,0,0,1,0,.87,5.74,5.74,0,0,1,0,1.08l-.07.19a9.05,9.05,0,0,0-.54-.86c-.31-.45-.46-.4-.59-.28s0,.05.19.22a2.28,2.28,0,0,1,.52.79c.17.38.2.43-.12.82a2.75,2.75,0,0,1-.82.74c-.25.13-.48.19-.61.28a.4.4,0,0,0-.2.44c0,.23.51.2.45,0s-.27-.07.3-.47,1-.52,1.41-1.08a2.09,2.09,0,0,0,.35-1.53,6.27,6.27,0,0,1-.1-.95c0-.29.15-.28.18-.54A.17.17,0,0,0,76.5,59Z"/><path class="cls-11" d="M49.84,63.14c-.22-.13-.57-.09-.88-.39s-.47-.42-.53-.6,0-.34,0-.46.06-.33.21-.56a1.33,1.33,0,0,1,.52-.51c.2-.09-.14-.12-.3,0a1.26,1.26,0,0,0-.39.48c-.07.16-.08.28-.13.38s0,.15-.09.11-.17,0-.17-.19A4.14,4.14,0,0,1,48,60.19a1,1,0,0,0,0-.81c-.08-.1,0-.42-.36-.29s.21.26.24.51,0,1.17,0,1.74a1.36,1.36,0,0,0,.53,1.17,4,4,0,0,0,1,.73c.29.16.48.18.62.35s.31.3.35.11S50.06,63.27,49.84,63.14Z"/><path class="cls-12" d="M42.91,72.28c.16.23.25.33.23.32S43,72.39,42.91,72.28Z"/><path class="cls-13" d="M78.06,57.28a.71.71,0,0,0-1-.09,18.25,18.25,0,0,1-1.82,1,2.23,2.23,0,0,0-1.06,1,3,3,0,0,0,0,.9,1.33,1.33,0,0,0,.33.66,1,1,0,0,1,.22.58c0,.23-.12.26-.09.4s.21.08.39-.12-.1-.68-.27-1-.57-.83-.36-1.24a2.19,2.19,0,0,1,1.08-1,15.09,15.09,0,0,0,1.33-.79,2.77,2.77,0,0,1,.75-.33,1.17,1.17,0,0,1,.65.49,2.79,2.79,0,0,1,.4.86c.07.29.14.22.1.6s-.21.92-.07.76.13-.26.21-.71a1.67,1.67,0,0,0-.12-1.07A3,3,0,0,0,78.06,57.28Z"/><path class="cls-14" d="M28.78,97.28c.48-1.39,1-2.81,1.28-3.76a7.43,7.43,0,0,0,0-4.89,13.21,13.21,0,0,0-2.35-3.85A8.56,8.56,0,0,1,26,82.46a2.2,2.2,0,0,1,.16-2c.35-.55.63-2.57,1.15-2.53s.54.15.95.52.66,1,1.37,1.64,1.28,1.27,1.63,1.6.29.65.09.81a1,1,0,0,1-1,0L29.55,82a2,2,0,0,1-.6-.49,3.57,3.57,0,0,0-.63-.54c-.27-.13-.07-.07-.41-.34s-.38-.55-.43-.55-.28.13-.09.38.25.28.25.33-.09.17-.25.32a.69.69,0,0,1-.71.16c-.26-.06-.08.18.24.21s.46-.21.73-.37.2-.28.24-.24a2.42,2.42,0,0,1,.56.4c.4.34.9.83,1.39,1.17s1.28.53,1.64.18a.61.61,0,0,0,.16-.84,9.61,9.61,0,0,0-1.58-1.56,8.15,8.15,0,0,1-1.16-1.32s.12-.54.2-1.06c.37.1.59-.1,1.13.1s.9.7,1.71,1.12,1.37.17,1.38.31.3.48.49.82a9.22,9.22,0,0,1,.6,1.15c.2.5.07.57.23,1s.14.65.39.48-.09-.48-.22-.76a1.75,1.75,0,0,1-.12-.82c0-.33.15-.36.25-.9A8.66,8.66,0,0,0,34.52,78a12.88,12.88,0,0,1-.14-3.15c.09-.37.63-1.32,1-1.21s.68.42.71,1.13.13,2.12.23,2.86a17.39,17.39,0,0,0,.75,2.83,6.45,6.45,0,0,1,.1,3,7.6,7.6,0,0,0-.17,2.8c.17,1.19-1,5-1.55,7.45-.3,1.33-1,4.62-1.66,7.69a48.44,48.44,0,0,0,60.13-3,18,18,0,0,0-.68-2.22c-1-2.56-2.88-7.44-4.57-9.34s-3.9-2.4-6.41-2.81l-7.89-1.29a2.24,2.24,0,0,0-.45-.49c-.21-.15,0-.11-.63-.11s-.56.12-.72-.09,0-.4-.4-.49-.4.11-.87.14a.73.73,0,0,1-.3,0c.7-.32,8.58-4,12.75-8.69A27.85,27.85,0,0,0,91,56.64a25,25,0,0,0-3.93-15.81c-2.76-4.29-11.32-14-24.77-14s-22.46,8-23.81,9.66a31.34,31.34,0,0,0-5.28,14.73,31.16,31.16,0,0,0,2.36,14.4c1.48,3.9,5.8,8.32,6.69,9.39S52.4,80.24,52.86,80.4l.11,0A2.55,2.55,0,0,1,52.12,82c-.39.24-.56.07-.83.18s-.07.21-.54.4a7.2,7.2,0,0,1-1.54.36,1.07,1.07,0,0,1-.47-.18c-.16-.07,0,.25-.64.38a2.08,2.08,0,0,1-.93.13c-.69,0-.93-.2-1.41-.2s-.16.32-.79.56a38.4,38.4,0,0,1-3.9.7,23.52,23.52,0,0,1-2.76.51,9.75,9.75,0,0,1-1.1,0s.29-2.41.29-3.28-.71-2-.89-3.27a33.42,33.42,0,0,1-.36-3.71,1.32,1.32,0,0,0-.83-1.14c-.25-.17-.91.6-1.11,1.13a10.9,10.9,0,0,0-.1,2.75c0,.58.51,2.56.54,2.82s-.18.58-.25,1a9.58,9.58,0,0,0-.94-1.54l-.07-.4a.8.8,0,0,0,.49-.76c0-.6-.2-.59-.49-.87a11.63,11.63,0,0,0-1.1-.79s-.46-2.72-.62-3.16a3,3,0,0,1-.16-1.2c0-.27.05-2.28.05-2.5,0,0,.52-.84.68-1.16a.9.9,0,0,0,0-1.08c-.31-.3-.53-.18-.53-.18l-.13.09a1.84,1.84,0,0,0-.13-1.18c-.3-.44-.58-.53-.82-.45a.86.86,0,0,0-.46.71c0,.28-.08,1-.09,1.3s0,1.07,0,1.07-1.9,2.15-2.27,2.65a3.56,3.56,0,0,0-.7,1.46,4.68,4.68,0,0,0,0,1.12,4.08,4.08,0,0,0-.75.9,2.84,2.84,0,0,0-.2.9,1.78,1.78,0,0,1-.16.56,1.1,1.1,0,0,0-.09.58,1,1,0,0,1-.07.51,2,2,0,0,0-.18.71v1.05a14.17,14.17,0,0,0-1.29,1.71,3.1,3.1,0,0,0,.22,1.3c.09.29.69,1.75.85,2.17a30,30,0,0,0,1.59,3,10.7,10.7,0,0,1,1.26,2.29,5.31,5.31,0,0,1,.19,2.41,32.41,32.41,0,0,1-1.22,3.49C27.77,96.32,28.27,96.8,28.78,97.28ZM71.09,82.21c.16.29.53.38.18,1.35a6.23,6.23,0,0,1-2,2.7,13.79,13.79,0,0,1-4.76,1.89,12.87,12.87,0,0,1-5.13-.09,14.51,14.51,0,0,1-6.17-3c1.39-.4,1.66-1.58,1.8-2.66a13.79,13.79,0,0,1,.8-3.41c.43-1,1.13-1.39,2-1.11s1.44,1.26,2.4,1.25.88-.77,2.37-1a13,13,0,0,0,3.91-1,12,12,0,0,0,3.14-2.37l0,.48a27.21,27.21,0,0,0,.23,4.1c.14.71,0,.92.09,1.19a2.18,2.18,0,0,0,.44.67A9.88,9.88,0,0,1,71.09,82.21ZM53,66c.06-1.29-.15-5.21.18-6.17a2.7,2.7,0,0,0,1.16-.57,5.07,5.07,0,0,1,1.29-.66,1.39,1.39,0,0,0,.66,1.28,1.4,1.4,0,0,1-.46-.12c-.55-.26-.93-.59-1-.54s.07.24.36.46a2.83,2.83,0,0,0,1.54.45,16.85,16.85,0,0,0,2.13-.23c.4,0,.48.44.64.41s0-.3-.21-.47-.11-.14-.22-.36a1.78,1.78,0,0,0-.48-.64,4,4,0,0,1,1.27.94l.09,0a.37.37,0,0,1,.08.15,11.44,11.44,0,0,1,.51,3.45,3.44,3.44,0,0,1-.37,2c-.07.14-.47.12-.54.42a6.12,6.12,0,0,1-.31.94c-.2.53,0,.66.62.74s.53.19.7.44.56.36,1.66.31A7.38,7.38,0,0,0,64,68.11c.34,0,.39-.29.25-.32s-.38.13-.46-.09.14-.33.43-.12.28.26.6.27.39-.25.46-.46-.09-.25-.13-.39a4,4,0,0,1,0-.59.93.93,0,0,0-.12-.5c-.08-.18-.45-.57-.56-.36s.2.26.34.49,0,.6,0,1,0,.53-.24.45-.08-.3-.75-.31a1.21,1.21,0,0,0-.64.11l0,0c.12-.16.12-.41.17-.87s-.28-2-.27-2.5a20,20,0,0,1,.2-2.53,9.9,9.9,0,0,0,0-2,2.1,2.1,0,0,1,.87-1.76,4.89,4.89,0,0,1,2.2-.71,6.13,6.13,0,0,1,2.78,0,4.61,4.61,0,0,0,1.77.15c.14-.09.14-.28-.28-.25a4.92,4.92,0,0,1-1.48-.16,9.86,9.86,0,0,0-2.83,0,6,6,0,0,0-1.54.33,2.73,2.73,0,0,0-1.53,1.51,4.13,4.13,0,0,0-.08,1.66c0,.83-.23,1.43-.26,3.3a14.26,14.26,0,0,0,.09,2.67c.08.55,0,1.54-.81,1.43s-.8-1-.9-1.4-.1-2.87-.16-4.37.18-3-.48-4-5.36-1-7.88-.66a10.64,10.64,0,0,1-.06-1.73c0-.94-.16-3.53,0-3.92a.61.61,0,0,1,.11-.21,5.66,5.66,0,0,0,1.9-1.73c.35-.48,1.23-.77,1-.38a1.88,1.88,0,0,1-.68.75,10.08,10.08,0,0,0,2-1c.52-.34,2.76-.11,2.12.27s-1.05.4-1.37.2c.51.61,1.69.67,3.2.11a21.17,21.17,0,0,0,3.63-2,1.6,1.6,0,0,1,1-.24s-.62,1.12.23,1.52c-.28-.33-.15-.9.37-1.28a5.82,5.82,0,0,0,1.38-1.24,2.56,2.56,0,0,0-.16,1.79c.3-1.16,1.69-1.88,2.18-2.17.26.3,0,.79,0,.79a1.3,1.3,0,0,0,.53-.92c.62.44.41,1.9,0,2.22a4.7,4.7,0,0,0,1.36-1.89c.13,0,.52.72.68,2a7.42,7.42,0,0,1,.07,2.55c.7-.31.61-.82.88-.92a11.63,11.63,0,0,1,.42,3.69,16.31,16.31,0,0,1-.87,3.26c-.32.66,0,2.32.21,3a7.74,7.74,0,0,1,.4,2.9c-.14,1.11-.31,3.73-.49,5.13s-.28,2.76-.79,3.33a20.09,20.09,0,0,1-2.26,1.88c-.52.4-3.11,2.46-3.72,2.94h0a5.22,5.22,0,0,1-2.86.49,5.27,5.27,0,0,1-2.79-.46,14.14,14.14,0,0,1-2.86-2.06c-1-.83-3-2.46-3.43-3.31s-1.06-1.27-1-1.84S53,67.39,53,66Zm3.75-6.78c.42,0,.76-.31.58-.73l.47.09a1.16,1.16,0,0,1-1,1.09A1,1,0,0,1,56,58.57l.24,0h.07C56.23,59,56.36,59.25,56.79,59.26ZM58.14,59a2.56,2.56,0,0,0,.48.42c.22.13.34.38.19.35s-.27,0-.68.1a4.57,4.57,0,0,1-1,.11A1.65,1.65,0,0,0,58.14,59Zm-7.32,4.07a8,8,0,0,1,.09,2.86,2,2,0,0,1-1.07.9c-.31.08-.66-.14-1.14-.52a6.05,6.05,0,0,1-1.16-1.16,2.43,2.43,0,0,1-.45-1.08c-.09-.44-.16-.74-.27-1.23a10.29,10.29,0,0,0-1.2-2.11,2.68,2.68,0,0,1-.55-.93,2.58,2.58,0,0,1,0-1,2.75,2.75,0,0,1,.33-1.13c.24-.43,1.27-1.7,2.25-1.33A5.22,5.22,0,0,1,50.6,59a2.78,2.78,0,0,1,.31,1.51,4.14,4.14,0,0,1-.21,1.08A2.8,2.8,0,0,0,50.82,63.05ZM50,43.25c-.16-.27-.91-2.36-.91-2.36,7.31,2.87,12.19-1.39,12.19-1.39s.88,1.29,4.68,2.28a20.86,20.86,0,0,0,8.47-.09,7.43,7.43,0,0,1-1.11,2.14,77.16,77.16,0,0,1-12.43.76C55.47,44.49,50.17,43.52,50,43.25ZM79.4,59.82c-.11.24-1.43,2.31-1.64,2.64A4.8,4.8,0,0,0,77.35,64a3.27,3.27,0,0,1-.66,1.34,4.16,4.16,0,0,1-1.08,1,2.29,2.29,0,0,1-1.15.42,1.16,1.16,0,0,1-.88-.63,5.47,5.47,0,0,1-.06-2,13.4,13.4,0,0,0,.2-2.64c-.09-.84-.41-1.18-.18-2a6.69,6.69,0,0,1,1.33-1.93c1.47-1.31,1.92-1.3,2-1.3a3.43,3.43,0,0,1,1.23.36,16.35,16.35,0,0,1,1.12,1.58,1,1,0,0,1,.18.82C79.4,59.35,79.52,59.59,79.4,59.82ZM41.27,72.75C37.65,68,33.75,61.43,34.15,51.64s6.54-16.52,10.71-18.73A36.63,36.63,0,0,1,61.8,28.28c6.82,0,14.92,3.25,18.91,7s7.76,9.2,8.81,15.68-.43,13.26-2.83,17.16-9,10.95-16.1,13.18a3.16,3.16,0,0,1-.33-.71,13.57,13.57,0,0,1-.34-2.68c1.1-.31,12.89-4,15.76-13.78,3-10.32,1.23-16.33-1.9-21.55S73.22,30.8,63.15,31s-17.92,3.44-21.42,9.15-9.54,17.92,1.18,32.15c-1.44-2-8.72-13.05-3.21-26.51,6.14-15,22.1-13.39,24.37-13.44,4.73-.1,23.12,4.25,22.16,23.69A22.26,22.26,0,0,1,69.89,77,27.7,27.7,0,0,1,70,73.22c2.36-2,2.6-2.32,2.71-3.08s.58-3.93.58-3.93a3.78,3.78,0,0,0,.74.57,1.55,1.55,0,0,0,1.59-.28,7.24,7.24,0,0,0,1.73-1.86,5.29,5.29,0,0,0,.38-1.58,9.56,9.56,0,0,1,1.12-1.92,3.28,3.28,0,0,0,.76-1.88c0-.72.23-.73-.43-1.69A3.41,3.41,0,0,0,77.7,56.2a3.07,3.07,0,0,0-.9-.08c-.14,0-.16,0-.15-.08a4.6,4.6,0,0,0,.42-1.25,7.06,7.06,0,0,0-.41-2.29c-.24-.87.42-1.68.53-1.35s.42.86.59.69.13-.43-.17-1.58a8.47,8.47,0,0,0-.93-2.21,4.4,4.4,0,0,0-.59-1l-.46-.65a1.91,1.91,0,0,1,.93.55c.26.37.5.4.5.4a2.89,2.89,0,0,1-.24-.67c-.07-.38-.33-.62-.93-1.13a10.88,10.88,0,0,0-1.71-1,.6.6,0,0,0-.13-.08s.65-1.27,1.06-2.12A9.68,9.68,0,0,0,75.68,41a5.19,5.19,0,0,1-1.81.45c-1.26.14-2.12.18-2.12.18a1.38,1.38,0,0,1-.21-1,2.77,2.77,0,0,0-.75,1.07l-.43,0s.13-.47-.5-1.12-1.55-.84-2.07-1.33-.68-1.3-.94-1.45c0,.36,0,1.07,0,1.41a1.5,1.5,0,0,1,0,.49,13,13,0,0,0-1.31-1.41,1.53,1.53,0,0,0-1-.49,3.41,3.41,0,0,1,.13,1.17,9.84,9.84,0,0,0-1.78-2.16,6.74,6.74,0,0,0-1.23-1,.7.7,0,0,0-.44-.1,1.45,1.45,0,0,1,.19.62,4.2,4.2,0,0,1-.19,1.51A.3.3,0,0,1,61,38a9.86,9.86,0,0,0-.86-.85c-.24-.18-.3-.18-.37-.43-.3.31-.18,1-.16,1.21a1,1,0,0,1-.06.37,1.91,1.91,0,0,1-1.29-.18c-.8-.36-1.21-.38-1.48-.8-.13.59.53.86.52,1.15s-.11.18-.31.16a7.23,7.23,0,0,0-2.17.6,4.85,4.85,0,0,0-2.19,1.51,4.13,4.13,0,0,1-.66.59s-.72-.29-1.56-.58-1.33-.68-2-.6-.15.93.08,1.58a16.62,16.62,0,0,0,.77,1.93l.18.26a1.45,1.45,0,0,1-.63.09c-.07.24.38.29.38.29s-.19,1.3-2,1.1c-.67-.07,1.09.52,1.06,1s-.8,1-1.23,1.74a10.72,10.72,0,0,0-.67,1.44,2.87,2.87,0,0,1-.09.44,2.94,2.94,0,0,1-.39.26c-.06,0,.1,0,.58.35a2.32,2.32,0,0,1,1.32,1.59A4.54,4.54,0,0,1,48,54.54c-.13.44-.23.38-.27.78a2,2,0,0,0,0,.73,2.19,2.19,0,0,0-1.85.73,4.79,4.79,0,0,0-1.08,2A2,2,0,0,0,45,60.27a17.88,17.88,0,0,1,1.48,2.41,15.78,15.78,0,0,0,.45,1.8,5.59,5.59,0,0,0,1.55,1.9c.77.5,1.2.67,1.62.45A2.2,2.2,0,0,0,51,66a18,18,0,0,0,.17,1.9c0,.44,0,.85.09,1.2a5.5,5.5,0,0,0,1.46,2.38,5.17,5.17,0,0,1,.56.67s0,3.25,0,4.4A28.61,28.61,0,0,1,53,80.15C51.82,79.73,44.58,77.1,41.27,72.75Zm-8.49,4.59a3.23,3.23,0,0,1,.77.53c.22.21.26.28.17.43s0,.68-.55.39-.84-.82-.77-1.09S32.58,77.26,32.78,77.34Zm-1.11-3.27c.17.5.44,2.33.44,2.33v0s-1-.68-1.49-1.07A2,2,0,0,0,29.9,75a3.43,3.43,0,0,0,0-1c-.12-.25-.33-.29-.3-.68s0-.5.1-.64a3.34,3.34,0,0,0,.65-.82,8.58,8.58,0,0,1,.41-1c.12-.22.7-.71.7-.57a21.62,21.62,0,0,1-.07,2.29c-.09.35-.27.42-.12.65A3.13,3.13,0,0,1,31.67,74.07Zm-1.2-5.93c0-.15.18,0,.18-.49s-.22-1.3.09-1.48c.06,0,.21-.15.33,0a4.87,4.87,0,0,1,.33.43,3.79,3.79,0,0,1,.09,1l-.06.2-1,1S30.48,68.3,30.47,68.14ZM29,70.91c.34-.51,1.55-1.75,1.74-2s.42,0,.57,0,.34-.15.56-.43-.21-.45-.1-.64c.18-.35.61.1.48.52a5.21,5.21,0,0,1-1,1.58,3.25,3.25,0,0,0-.77.68c-.1.19-.11.47-.23.8a2.92,2.92,0,0,1-.81,1c-.25.21-.19.53-.19,1a1.33,1.33,0,0,0,.14.71,1.51,1.51,0,0,1,.07.66l-.12.09a2.08,2.08,0,0,1-.51-.41c-.11-.19-.48-.17-.72-.23A6.19,6.19,0,0,1,29,70.91ZM27.17,76a3.13,3.13,0,0,1,.15-1c.17-.54.19-.54.56-.54a3.71,3.71,0,0,1,1.43.59,11.94,11.94,0,0,1,1.37.66c.65.45,1.82,1.15,1.65,1.42s-.41.46-.28.73a7.58,7.58,0,0,0,.73.92c.12.16,0,.29-.21.19a10.18,10.18,0,0,1-1.84-1,1,1,0,0,0-1-.35c-.47,0-.45.15-.76,0a2.3,2.3,0,0,1-1.33-1c-.39-.67-.27.16.08.45a3.43,3.43,0,0,0,1.12.68,3.17,3.17,0,0,1,0,.52l-.09.34s-.55-.84-1-.94-.52-.16-.8.07A16.11,16.11,0,0,1,27.17,76Z"/><path class="cls-15" d="M49.4,58.76c.39.27.47.29.58.56s.2.21.08.66a2.52,2.52,0,0,1-.5.94c-.18.27-.28.92.2.88.24,0-.15-.36.06-.75a3.91,3.91,0,0,0,.55-1.33,1.06,1.06,0,0,0-.67-1.08,15,15,0,0,1-1.73-1c-.59-.42-.59-.52-1-.49s-.7.35-1.11.9a1.26,1.26,0,0,0-.34,1.2c.06.45,0,.78.08.86s.1-.12.1-.48a1.91,1.91,0,0,1,.21-1.22,2.23,2.23,0,0,1,.69-.8c.21-.13.28-.27.67-.11a10.56,10.56,0,0,1,1.21.68A10.38,10.38,0,0,1,49.4,58.76Z"/><path class="cls-6" d="M27.71,54.73a.17.17,0,0,1,0,.1l-1,1.64a.33.33,0,0,0,.06.42A.4.4,0,0,0,27,57a.31.31,0,0,0,.2-.07L29.67,55a.32.32,0,0,0,0-.52l-2.45-1.86a.32.32,0,0,0-.48.42ZM27,52.85a.08.08,0,0,1,.12,0l2.45,1.86a.11.11,0,0,1,0,.08.08.08,0,0,1,0,.07l-2.45,1.87a.09.09,0,0,1-.12,0,.1.1,0,0,1,0-.12l1-1.64a.34.34,0,0,0,0-.34l-1-1.64h0A.1.1,0,0,1,27,52.85Z"/><rect class="cls-6" x="22.57" y="54.66" width="4.24" height="0.24"/><path class="cls-7" d="M25.83,57.28h.08a.28.28,0,0,0,.2-.15L27.39,55a.34.34,0,0,0,0-.34l-1.28-2.17a.28.28,0,0,0-.2-.15.31.31,0,0,0-.25,0L22.1,54.5a.33.33,0,0,0,0,.56l3.56,2.17A.26.26,0,0,0,25.83,57.28Zm-3.65-2.5a.08.08,0,0,1,0-.08l3.56-2.17a.1.1,0,0,1,.07,0,.1.1,0,0,1,.06.05l1.28,2.17a.17.17,0,0,1,0,.1L25.91,57a.07.07,0,0,1-.06,0,.06.06,0,0,1-.07,0l-3.56-2.17A.08.08,0,0,1,22.18,54.78Z"/><path class="cls-16" d="M58.77,70.73a2.86,2.86,0,0,1,1,1c.27.44.59.51,1.17.59a12.65,12.65,0,0,0,2.32,0c1-.06,1-.16,1.41-.46s1-1,1.62-1.59a2.22,2.22,0,0,1-1.42-.14,3.91,3.91,0,0,0-1.45-.45c-.58,0-.82.3-1.21.3s-.6-.3-1.16-.3a2.41,2.41,0,0,0-1.51.54c-.18.16-.23.22-.58.15C58.46,70.29,58.31,70.45,58.77,70.73Zm1.15-.39c.08,0,.18,0,.44-.08s.58-.38,1-.25a4.72,4.72,0,0,0,1.32.21c.44,0,.53-.21,1-.21s.68.26,1.22.42c0,0-.09.17-.62.07a3.3,3.3,0,0,0-1-.06c-.47,0-.7.18-1.19.22A8,8,0,0,1,61,70.49a7.07,7.07,0,0,1-1,.08C59.77,70.51,59.84,70.3,59.92,70.34Zm-.38.44c.08-.18.3.12.77.12s.38-.15.79-.07a5,5,0,0,0,1.09.22c.49,0,.44-.22.91-.25a7.16,7.16,0,0,0,1.23,0c.62-.09,1-.13,1.16-.14s-.27.35-.41.53a1.37,1.37,0,0,1-.43.38,5.42,5.42,0,0,1-1.39.24c-.48,0-.87.06-1.11.07a2.29,2.29,0,0,1-.8,0c-.45-.09-.52,0-.79-.2s-.4-.39-.8-.49A.33.33,0,0,1,59.54,70.78Z"/><rect class="cls-6" x="28.15" y="54.66" width="1.17" height="0.24"/><path class="cls-17" d="M67.72,60.17a2.79,2.79,0,0,0,1.53-.45c.3-.22.43-.41.37-.46s-.45.28-1,.54a1.4,1.4,0,0,1-.46.12,1.36,1.36,0,0,0,.65-1.28,5.13,5.13,0,0,1,1.3.66c.57.37.86.62,1.4.57s.33-.27,0-.22-.43-.15-.63-.45a2.94,2.94,0,0,0-1.22-.88,4.17,4.17,0,0,0-2.3-.28,5.22,5.22,0,0,0-2.94,1.68c-.14.17,0,.2.17.1a3.91,3.91,0,0,1,1.27-.94,1.57,1.57,0,0,0-.48.64c-.11.22,0,.18-.22.36s-.44.42-.21.47.24-.41.63-.41A17,17,0,0,0,67.72,60.17Zm-.6-1.64c-.18.42.15.74.58.73s.56-.3.48-.73h.07l.24,0a1,1,0,0,1-.85,1.14,1.16,1.16,0,0,1-1-1.09A3.89,3.89,0,0,1,67.12,58.53Zm-1.26.87a2.29,2.29,0,0,0,.49-.42,1.63,1.63,0,0,0,1,1,4.57,4.57,0,0,1-1-.11c-.4-.1-.52-.14-.67-.1S65.64,59.53,65.86,59.4Z"/><path class="cls-18" d="M63.76,82.23a6.84,6.84,0,0,1-1.61,1.43c-.6.26-1.15-.12-2.11-.88-.19-.15-.23-.1,0,.2a3.31,3.31,0,0,0,1.86,1.13c.66,0,1.39-.88,1.94-1.44S64,82,63.76,82.23Z"/><path class="cls-19" d="M62,0a62,62,0,1,0,62,62A62,62,0,0,0,62,0Zm0,110a48,48,0,1,1,48-48A48,48,0,0,1,62,110Zm35-82.23,8.48-8.48a61.17,61.17,0,0,1,12.4,18.29l-11,4.72A49.24,49.24,0,0,0,96.93,27.72ZM96.22,27a49.11,49.11,0,0,0-14.53-9.85l4.73-11a61.19,61.19,0,0,1,18.28,12.4ZM80.78,16.76A48.76,48.76,0,0,0,62.47,13V1a60.69,60.69,0,0,1,23,4.72ZM61.47,13a48.67,48.67,0,0,0-18.3,3.75l-4.73-11A60.73,60.73,0,0,1,61.47,1ZM42.25,17.16A49.24,49.24,0,0,0,27.72,27l-8.48-8.48A61.36,61.36,0,0,1,37.53,6.13ZM27,27.72a49.24,49.24,0,0,0-9.85,14.53l-11-4.72a61.36,61.36,0,0,1,12.4-18.29ZM16.76,43.17A48.67,48.67,0,0,0,13,61.47H1a60.73,60.73,0,0,1,4.72-23ZM13,62.47a48.76,48.76,0,0,0,3.75,18.31l-11,4.72A60.69,60.69,0,0,1,1,62.47ZM17.16,81.7A49.19,49.19,0,0,0,27,96.22l-8.48,8.48A61.19,61.19,0,0,1,6.13,86.42ZM27.72,96.93a49.24,49.24,0,0,0,14.53,9.85l-4.72,11a61.17,61.17,0,0,1-18.29-12.4Zm15.45,10.25a48.47,48.47,0,0,0,18.3,3.75v12a60.54,60.54,0,0,1-23-4.71Zm19.3,3.75a48.56,48.56,0,0,0,18.31-3.75l4.72,11a60.5,60.5,0,0,1-23,4.71Zm19.22-4.15a49.11,49.11,0,0,0,14.53-9.85l8.48,8.48a61,61,0,0,1-18.28,12.4ZM96.93,96.22a49.06,49.06,0,0,0,9.85-14.52l11,4.72a61,61,0,0,1-12.4,18.28Zm10.25-15.44a48.56,48.56,0,0,0,3.75-18.31h12a60.5,60.5,0,0,1-4.71,23Zm3.75-19.31a48.47,48.47,0,0,0-3.75-18.3l11-4.73a60.54,60.54,0,0,1,4.71,23Z"/></g></g></svg>