<svg xmlns="http://www.w3.org/2000/svg" xmlns:xlink="http://www.w3.org/1999/xlink" viewBox="0 0 251.1 155.42"><defs><style>.cls-1{fill:url(#New_Gradient_Swatch_2);}.cls-2{fill:#1295f3;}</style><linearGradient id="New_Gradient_Swatch_2" x1="72.2" y1="53.53" x2="178.9" y2="53.53" gradientUnits="userSpaceOnUse"><stop offset="0" stop-color="#1d5cfc"/><stop offset="1" stop-color="#08caea"/></linearGradient></defs><title>Asset 4</title><g id="Layer_2" data-name="Layer 2"><g id="Layer_1-2" data-name="Layer 1"><path class="cls-1" d="M128.38,69.64a1.48,1.48,0,0,1-.86-2.68l40.89-29.22A1.67,1.67,0,0,1,171,39.43l-5.8,29a1.49,1.49,0,0,1-1.45,1.19ZM88.94,9.83,72.44,92.45a12.22,12.22,0,0,0,12,14.61h67.14a12.22,12.22,0,0,0,12-9.82h0a12.22,12.22,0,0,0-12-14.62H110a10.11,10.11,0,0,1-9.9-12.16h0a12.52,12.52,0,0,1,5-7.64l25.73-18.45a1.73,1.73,0,0,0-1-3.13H116.19a8.4,8.4,0,0,1-8.24-10h0a8.4,8.4,0,0,1,8.24-6.75h50.49a12.22,12.22,0,0,0,12-9.83h0A12.22,12.22,0,0,0,166.68,0H100.92A12.22,12.22,0,0,0,88.94,9.83Z"/><path class="cls-2" d="M27.57,126.89A10.83,10.83,0,0,1,31,134.6H22a3.67,3.67,0,0,0-1.66-2,5.72,5.72,0,0,0-3.05-.74A7.5,7.5,0,0,0,11.88,134,10.12,10.12,0,0,0,9,139.62a14.33,14.33,0,0,0-.21,2.22q0,5.94,6.59,5.94a8.19,8.19,0,0,0,4-1,9.1,9.1,0,0,0,3.16-3.11H14l1-6.11H30.78L29.3,146a17.53,17.53,0,0,1-6.22,6.76,18.23,18.23,0,0,1-9.94,2.54,15.15,15.15,0,0,1-7.07-1.55,10.64,10.64,0,0,1-4.52-4.39A13.68,13.68,0,0,1,0,142.76,20.14,20.14,0,0,1,3.6,131.3,17.4,17.4,0,0,1,10,125.89a18.73,18.73,0,0,1,8.58-2C22.43,123.94,25.43,124.93,27.57,126.89Z"/><path class="cls-2" d="M52,150H41l-2.62,5.15h-9l16.72-30.78h9.87l5.9,30.78H52.74Zm-1-6.47-1.57-10-5.11,10Z"/><path class="cls-2" d="M93,124.21l-1.22,6.85H83.53l-4.24,24.06H70.73l4.19-24.06H66.71l1.18-6.85Z"/><path class="cls-2" d="M103.3,131.06l-.91,5.11h10l-1.18,6.51h-10l-1,5.58H111.6l-1.22,6.86H90.47l5.41-30.91h19.91l-1.18,6.85Z"/><path class="cls-2" d="M163,124.21l-12.62,30.91H139.72l-1-19.08-7.6,19.08H120.51l-1.79-30.91H128l-.3,21,8.47-21h9.38l1.1,21,7.11-21Z"/><path class="cls-2" d="M181.72,150h-11l-2.62,5.15h-9l16.73-30.78h9.86l5.9,30.78h-9.08Zm-1-6.47-1.58-10-5.1,10Z"/><path class="cls-2" d="M227.74,124.21l-14.63,21.08-1.7,9.83h-8.56l1.66-9.83-7.16-21.08h9.83L210.54,136l7.51-11.78Z"/><path class="cls-2" d="M247.41,151.45a10.57,10.57,0,0,1-4.15,2.9,15.27,15.27,0,0,1-5.91,1.07q-5.5,0-8.58-2.64a9.17,9.17,0,0,1-3.13-7.27h9.13a2.84,2.84,0,0,0,4.52,2.62,2.4,2.4,0,0,0,.89-1.57,2,2,0,0,0,0-.48,2.38,2.38,0,0,0-1.12-2.07,22.9,22.9,0,0,0-3.64-1.86,33,33,0,0,1-4-1.94,8.64,8.64,0,0,1-2.73-2.6,7.17,7.17,0,0,1-1.13-4.15,14.2,14.2,0,0,1,.21-2.18,8,8,0,0,1,4-5.55,14.8,14.8,0,0,1,7.83-2q5.73,0,8.56,2.53a9.34,9.34,0,0,1,3,7h-9.21a2.83,2.83,0,0,0-.55-2.14,2.29,2.29,0,0,0-1.81-.7,2.59,2.59,0,0,0-1.79.61,2.3,2.3,0,0,0-.7,1.83,2.27,2.27,0,0,0,1.07,1.93,18.88,18.88,0,0,0,3.47,1.7,33.42,33.42,0,0,1,4.08,1.92,8.55,8.55,0,0,1,2.76,2.58,7.14,7.14,0,0,1,1.15,4.19,13.2,13.2,0,0,1-.22,2.18A8.47,8.47,0,0,1,247.41,151.45Z"/></g></g></svg>