<svg xmlns="http://www.w3.org/2000/svg" xmlns:xlink="http://www.w3.org/1999/xlink" viewBox="0 0 1209 656" id="el_HCgWNwWrl"><style>@-webkit-keyframes kf_el_hxVCyjyvtLL_an_DK6aiacuu{15.56%{opacity: 0;}52.22%{opacity: 1;}0%{opacity: 0;}100%{opacity: 1;}}@keyframes kf_el_hxVCyjyvtLL_an_DK6aiacuu{15.56%{opacity: 0;}52.22%{opacity: 1;}0%{opacity: 0;}100%{opacity: 1;}}@-webkit-keyframes kf_el_v5k_nlDPKsD_an_66j5pvxHL{0%{opacity: 0;}26.67%{opacity: 1;}100%{opacity: 1;}}@keyframes kf_el_v5k_nlDPKsD_an_66j5pvxHL{0%{opacity: 0;}26.67%{opacity: 1;}100%{opacity: 1;}}@-webkit-keyframes kf_el_9O5XXRJBiSP_an_CFmaGfiDN{0%{opacity: 0;}44.44%{opacity: 0;}58.89%{opacity: 1;}62.22%{opacity: 0.5;}94.44%{opacity: 1;}100%{opacity: 1;}}@keyframes kf_el_9O5XXRJBiSP_an_CFmaGfiDN{0%{opacity: 0;}44.44%{opacity: 0;}58.89%{opacity: 1;}62.22%{opacity: 0.5;}94.44%{opacity: 1;}100%{opacity: 1;}}#el_HCgWNwWrl *{-webkit-animation-duration: 3s;animation-duration: 3s;-webkit-animation-iteration-count: 1;animation-iteration-count: 1;-webkit-animation-timing-function: cubic-bezier(0, 0, 1, 1);animation-timing-function: cubic-bezier(0, 0, 1, 1);}#el_fB0rFo6mCX{isolation: isolate;}#el_YGgnNYBBZM{fill: #3d00ff;visibility: hidden;}#el_cBTdx7J3g-{fill: rgb(222, 222, 222);visibility: hidden;}#el_ArFYFFgzPV{fill: #3d00ff;visibility: hidden;}#el_TeG5DmQmz-{fill: #11cfe7;visibility: hidden;}#el_J1s_EHzdPa{fill: #f0f;visibility: hidden;}#el_FnW1sP_iJz{fill: rgb(243, 243, 243);visibility: hidden;}#el_bXOJQK1XU8{fill: #f0f;visibility: hidden;}#el_PHknFCbp_-{fill: #f0f;visibility: hidden;}#el_sN0ZTijFJx{fill: #11cfe7;visibility: hidden;}#el_bHc0SFQPyr{fill: #3d00ff;visibility: hidden;}#el_7clk6mv4hZ{fill: #11cfe7;visibility: hidden;}#el_FmxUGv-bzS{fill: #f0f;visibility: hidden;}#el_8uVFBcsJcR2{fill: #f0f;visibility: hidden;}#el__kI5pBGfqi1{fill: #f0f;visibility: hidden;}#el_UERaxRd55MH{fill: #f0f;visibility: hidden;}#el_OoI_E9jrTxh{fill: #11cfe7;visibility: hidden;}#el_HOUfSk4JVWf{fill: #11cfe7;visibility: hidden;}#el_NDQIkntftM9{fill: #11cfe7;visibility: hidden;}#el_ry7y1Vd4WA6{fill: #3d00ff;visibility: hidden;}#el_LDUOWKexa_G{fill: #11cfe7;visibility: hidden;}#el_n9kMmwXaw07{fill: #11cfe7;visibility: hidden;}#el_RevE0qkmC3T{fill: rgb(224, 224, 224);visibility: hidden;}#el_qJem8KHu3tM{fill: rgb(230, 230, 230);visibility: hidden;}#el_GOygZV8GJSC{fill: #11cfe7;visibility: hidden;}#el_ODSKRYC3rMo{fill: #3d00ff;visibility: hidden;}#el_9dNKRJoBZM-{fill: rgb(235, 235, 235);visibility: hidden;}#el_svTYFqdWgv6{fill: #11cfe7;visibility: hidden;}#el_kzEiS-VDhwj{fill: #f0f;visibility: hidden;}#el_A2OUMMX8iHX{fill: #f0f;visibility: hidden;}#el_C40KjvghR-c{fill: #3d00ff;visibility: hidden;}#el_01YnbB2xXqW{fill: #f0f;visibility: hidden;}#el_NWlpFCMkYeX{fill: rgb(233, 233, 233);visibility: hidden;}#el_8wnkJaVqJkH{fill: #f0f;visibility: hidden;}#el_HqZRw1xDA7o{fill: #f0f;visibility: hidden;}#el_M0UFSfeKZ2b{fill: #11cfe7;visibility: hidden;}#el_Oudn2jwTcSA{fill: #11cfe7;visibility: hidden;}#el_P-DADkegNhn{fill: #11cfe7;visibility: hidden;}#el_x9e16yOm601{fill: #11cfe7;visibility: hidden;}#el_fy5knKYq0ye{fill: rgb(212, 212, 212);visibility: hidden;}#el_4H2dKNrAHaT{fill: #3d00ff;visibility: hidden;}#el_BRCyMmJka1r{fill: rgb(241, 241, 241);visibility: hidden;}#el_H-xRGrMto9b{fill: rgb(241, 241, 241);visibility: hidden;}#el_v5k_nlDPKsD{fill: #2c1b13;-webkit-animation-fill-mode: forwards;animation-fill-mode: forwards;opacity: 0;-webkit-animation-name: kf_el_v5k_nlDPKsD_an_66j5pvxHL;animation-name: kf_el_v5k_nlDPKsD_an_66j5pvxHL;-webkit-animation-timing-function: cubic-bezier(0, 0, 1, 1);animation-timing-function: cubic-bezier(0, 0, 1, 1);}#el_hxVCyjyvtLL{fill: url(#linear-gradient);-webkit-animation-fill-mode: forwards;animation-fill-mode: forwards;opacity: 0;-webkit-animation-name: kf_el_hxVCyjyvtLL_an_DK6aiacuu;animation-name: kf_el_hxVCyjyvtLL_an_DK6aiacuu;-webkit-animation-timing-function: cubic-bezier(0, 0, 1, 1);animation-timing-function: cubic-bezier(0, 0, 1, 1);}#el_9O5XXRJBiSP{fill: #fff;mix-blend-mode: overlay;-webkit-animation-fill-mode: forwards;animation-fill-mode: forwards;opacity: 0;-webkit-animation-name: kf_el_9O5XXRJBiSP_an_CFmaGfiDN;animation-name: kf_el_9O5XXRJBiSP_an_CFmaGfiDN;-webkit-animation-timing-function: cubic-bezier(0, 0, 1, 1);animation-timing-function: cubic-bezier(0, 0, 1, 1);}#el_8wnkJaVqJkH_an_WEuyD1RKr{-webkit-transform: translate(1124.0149536132812px, 467.6199951171875px) translate(-1124.0149536132812px, -467.6199951171875px) translate(0px, 0px);transform: translate(1124.0149536132812px, 467.6199951171875px) translate(-1124.0149536132812px, -467.6199951171875px) translate(0px, 0px);}#el_8wnkJaVqJkH_an_GToqGUmgt{-webkit-transform: translate(1124.0149536132812px, 467.6199951171875px) rotate(0deg) translate(-1124.0149536132812px, -467.6199951171875px);transform: translate(1124.0149536132812px, 467.6199951171875px) rotate(0deg) translate(-1124.0149536132812px, -467.6199951171875px);}#el_8wnkJaVqJkH_an_5axqNXzpU{-webkit-transform: translate(1124.0149536132812px, 467.6199951171875px) scale(0, 0) translate(-1124.0149536132812px, -467.6199951171875px);transform: translate(1124.0149536132812px, 467.6199951171875px) scale(0, 0) translate(-1124.0149536132812px, -467.6199951171875px);}#el_HqZRw1xDA7o_an_Imc-TVLjf{-webkit-transform: translate(186.6800079345703px, 100.16500091552734px) scale(0, 0) translate(-186.6800079345703px, -100.16500091552734px);transform: translate(186.6800079345703px, 100.16500091552734px) scale(0, 0) translate(-186.6800079345703px, -100.16500091552734px);}#el_HqZRw1xDA7o_an_fyHB9bJ80{-webkit-transform: translate(186.6800079345703px, 100.16500091552734px) rotate(0deg) translate(-186.6800079345703px, -100.16500091552734px);transform: translate(186.6800079345703px, 100.16500091552734px) rotate(0deg) translate(-186.6800079345703px, -100.16500091552734px);}#el_HqZRw1xDA7o_an_K6k0lQIZQH{-webkit-transform: translate(186.6800079345703px, 100.16500091552734px) translate(-186.6800079345703px, -100.16500091552734px) translate(0px, 0px);transform: translate(186.6800079345703px, 100.16500091552734px) translate(-186.6800079345703px, -100.16500091552734px) translate(0px, 0px);}#el_M0UFSfeKZ2b_an_FYgGhNfu-{-webkit-transform: translate(220.3919448852539px, 635.6415405273438px) translate(-220.3919448852539px, -635.6415405273438px) translate(0px, 0px);transform: translate(220.3919448852539px, 635.6415405273438px) translate(-220.3919448852539px, -635.6415405273438px) translate(0px, 0px);}#el_M0UFSfeKZ2b_an_bYHWKw8vu{-webkit-transform: translate(220.3919448852539px, 635.6415405273438px) scale(0, 0) translate(-220.3919448852539px, -635.6415405273438px);transform: translate(220.3919448852539px, 635.6415405273438px) scale(0, 0) translate(-220.3919448852539px, -635.6415405273438px);}#el_Oudn2jwTcSA_an_FvmSbNqNW{-webkit-transform: translate(545.8919677734375px, 127.67148208618164px) scale(0, 0) translate(-545.8919677734375px, -127.67148208618164px);transform: translate(545.8919677734375px, 127.67148208618164px) scale(0, 0) translate(-545.8919677734375px, -127.67148208618164px);}#el_Oudn2jwTcSA_an_nsoUeVeZJ{-webkit-transform: translate(545.8919677734375px, 127.67148208618164px) translate(-545.8919677734375px, -127.67148208618164px) translate(1px, 0px);transform: translate(545.8919677734375px, 127.67148208618164px) translate(-545.8919677734375px, -127.67148208618164px) translate(1px, 0px);}#el_P-DADkegNhn_an_dfEDTDuEE{-webkit-transform: translate(80.95500183105469px, 254.65499877929688px) scale(0, 0) translate(-80.95500183105469px, -254.65499877929688px);transform: translate(80.95500183105469px, 254.65499877929688px) scale(0, 0) translate(-80.95500183105469px, -254.65499877929688px);}#el_P-DADkegNhn_an_umNG0ffoI{-webkit-transform: translate(80.95500183105469px, 254.65499877929688px) rotate(0deg) translate(-80.95500183105469px, -254.65499877929688px);transform: translate(80.95500183105469px, 254.65499877929688px) rotate(0deg) translate(-80.95500183105469px, -254.65499877929688px);}#el_P-DADkegNhn_an_yyOKwMHkKS{-webkit-transform: translate(80.95500183105469px, 254.65499877929688px) translate(-80.95500183105469px, -254.65499877929688px) translate(0px, 0px);transform: translate(80.95500183105469px, 254.65499877929688px) translate(-80.95500183105469px, -254.65499877929688px) translate(0px, 0px);}#el_x9e16yOm601_an_5GLwlRRhQ{-webkit-transform: translate(989.6399841308594px, 20.950000762939453px) scale(1, 1) translate(-989.6399841308594px, -20.950000762939453px);transform: translate(989.6399841308594px, 20.950000762939453px) scale(1, 1) translate(-989.6399841308594px, -20.950000762939453px);}#el_x9e16yOm601_an_qp1A7D4eF{-webkit-transform: translate(989.6399841308594px, 20.950000762939453px) rotate(0deg) translate(-989.6399841308594px, -20.950000762939453px);transform: translate(989.6399841308594px, 20.950000762939453px) rotate(0deg) translate(-989.6399841308594px, -20.950000762939453px);}#el_x9e16yOm601_an_q8kjupz3z{-webkit-transform: translate(989.6399841308594px, 20.950000762939453px) translate(-989.6399841308594px, -20.950000762939453px) translate(0px, 0px);transform: translate(989.6399841308594px, 20.950000762939453px) translate(-989.6399841308594px, -20.950000762939453px) translate(0px, 0px);}#el_fy5knKYq0ye_an_5q9sOcT9S{-webkit-transform: translate(842.4400024414062px, 585.3500366210938px) scale(0, 0) translate(-842.4400024414062px, -585.3500366210938px);transform: translate(842.4400024414062px, 585.3500366210938px) scale(0, 0) translate(-842.4400024414062px, -585.3500366210938px);}#el_fy5knKYq0ye_an_hDBk1XsS4{-webkit-transform: translate(842.4400024414062px, 585.3500366210938px) translate(-842.4400024414062px, -585.3500366210938px) translate(0px, 0px);transform: translate(842.4400024414062px, 585.3500366210938px) translate(-842.4400024414062px, -585.3500366210938px) translate(0px, 0px);}#el_fy5knKYq0ye_an_FtQwZEZPg{-webkit-transform: translate(842.4400024414062px, 585.3500366210938px) rotate(0deg) translate(-842.4400024414062px, -585.3500366210938px);transform: translate(842.4400024414062px, 585.3500366210938px) rotate(0deg) translate(-842.4400024414062px, -585.3500366210938px);}#el_4H2dKNrAHaT_an_bI5pQaa3I{-webkit-transform: translate(565.1449890136719px, 631.1449890136719px) rotate(0deg) translate(-565.1449890136719px, -631.1449890136719px);transform: translate(565.1449890136719px, 631.1449890136719px) rotate(0deg) translate(-565.1449890136719px, -631.1449890136719px);}#el_4H2dKNrAHaT_an_VqoN7rSGE{-webkit-transform: translate(565.1449890136719px, 631.1449890136719px) translate(-565.1449890136719px, -631.1449890136719px) translate(0px, 0px);transform: translate(565.1449890136719px, 631.1449890136719px) translate(-565.1449890136719px, -631.1449890136719px) translate(0px, 0px);}#el_BRCyMmJka1r_an_S2CMbrKOH{-webkit-transform: translate(166.36000061035156px, 518.3099822998047px) translate(-166.36000061035156px, -518.3099822998047px) translate(0px, 0px);transform: translate(166.36000061035156px, 518.3099822998047px) translate(-166.36000061035156px, -518.3099822998047px) translate(0px, 0px);}#el_BRCyMmJka1r_an_hMTaODMm1u{-webkit-transform: translate(166.36000061035156px, 518.3099822998047px) rotate(0deg) translate(-166.36000061035156px, -518.3099822998047px);transform: translate(166.36000061035156px, 518.3099822998047px) rotate(0deg) translate(-166.36000061035156px, -518.3099822998047px);}#el_H-xRGrMto9b_an_80JJXhvQS{-webkit-transform: translate(1102.7100219726562px, 64.05500030517578px) translate(-1102.7100219726562px, -64.05500030517578px) translate(0px, 0px);transform: translate(1102.7100219726562px, 64.05500030517578px) translate(-1102.7100219726562px, -64.05500030517578px) translate(0px, 0px);}#el_H-xRGrMto9b_an_gDwuvw4Ki{-webkit-transform: translate(1102.7100219726562px, 64.05500030517578px) rotate(0deg) translate(-1102.7100219726562px, -64.05500030517578px);transform: translate(1102.7100219726562px, 64.05500030517578px) rotate(0deg) translate(-1102.7100219726562px, -64.05500030517578px);}#el_H-xRGrMto9b_an_Gs9l65g9f{-webkit-transform: translate(1102.7100219726562px, 64.05500030517578px) scale(0, 0) translate(-1102.7100219726562px, -64.05500030517578px);transform: translate(1102.7100219726562px, 64.05500030517578px) scale(0, 0) translate(-1102.7100219726562px, -64.05500030517578px);}#el_v5k_nlDPKsD_an_TxVrCdGq0{-webkit-transform: translate(637.5807952880859px, 314.96326446533203px) scale(0, 0) translate(-637.5807952880859px, -314.96326446533203px);transform: translate(637.5807952880859px, 314.96326446533203px) scale(0, 0) translate(-637.5807952880859px, -314.96326446533203px);}#el_hxVCyjyvtLL_an_yUE9YsxmW{-webkit-transform: translate(632.9922637939453px, 305.4000778198242px) scale(0, 0) translate(-632.9922637939453px, -305.4000778198242px);transform: translate(632.9922637939453px, 305.4000778198242px) scale(0, 0) translate(-632.9922637939453px, -305.4000778198242px);}#el_01YnbB2xXqW_an_K-yem0izM{-webkit-transform: translate(625.7449951171875px, 57.2400016784668px) translate(-625.7449951171875px, -57.2400016784668px) translate(0px, 0px);transform: translate(625.7449951171875px, 57.2400016784668px) translate(-625.7449951171875px, -57.2400016784668px) translate(0px, 0px);}#el_01YnbB2xXqW_an_B_pIioqTq{-webkit-transform: translate(625.7449951171875px, 57.2400016784668px) rotate(0deg) translate(-625.7449951171875px, -57.2400016784668px);transform: translate(625.7449951171875px, 57.2400016784668px) rotate(0deg) translate(-625.7449951171875px, -57.2400016784668px);}#el_NWlpFCMkYeX_an_f0vW8Bfgr{-webkit-transform: translate(415.0800018310547px, 89px) scale(0, 0) translate(-415.0800018310547px, -89px);transform: translate(415.0800018310547px, 89px) scale(0, 0) translate(-415.0800018310547px, -89px);}#el_NWlpFCMkYeX_an_893cO2DWq{-webkit-transform: translate(415.0800018310547px, 89px) rotate(0deg) translate(-415.0800018310547px, -89px);transform: translate(415.0800018310547px, 89px) rotate(0deg) translate(-415.0800018310547px, -89px);}#el_NWlpFCMkYeX_an_AWi1y-5tA{-webkit-transform: translate(415.0800018310547px, 89px) translate(-415.0800018310547px, -89px) translate(0px, 0px);transform: translate(415.0800018310547px, 89px) translate(-415.0800018310547px, -89px) translate(0px, 0px);}#el_C40KjvghR-c_an_NhpbgfNLd{-webkit-transform: translate(804.3550109863281px, 43.62500190734863px) translate(-804.3550109863281px, -43.62500190734863px) translate(0px, 0px);transform: translate(804.3550109863281px, 43.62500190734863px) translate(-804.3550109863281px, -43.62500190734863px) translate(0px, 0px);}#el_C40KjvghR-c_an_nd4WfgCiT{-webkit-transform: translate(804.3550109863281px, 43.62500190734863px) rotate(0deg) translate(-804.3550109863281px, -43.62500190734863px);transform: translate(804.3550109863281px, 43.62500190734863px) rotate(0deg) translate(-804.3550109863281px, -43.62500190734863px);}#el_A2OUMMX8iHX_an_jtg4Ujbxv{-webkit-transform: translate(40.084999084472656px, 521.1000061035156px) rotate(0deg) translate(-40.084999084472656px, -521.1000061035156px);transform: translate(40.084999084472656px, 521.1000061035156px) rotate(0deg) translate(-40.084999084472656px, -521.1000061035156px);}#el_A2OUMMX8iHX_an_Rnvyl9hLn1{-webkit-transform: translate(40.084999084472656px, 521.1000061035156px) translate(-40.084999084472656px, -521.1000061035156px) translate(0px, 0px);transform: translate(40.084999084472656px, 521.1000061035156px) translate(-40.084999084472656px, -521.1000061035156px) translate(0px, 0px);}#el_kzEiS-VDhwj_an_7407dqNy3{-webkit-transform: translate(1170.6300048828125px, 264.11500549316406px) translate(-1170.6300048828125px, -264.11500549316406px) translate(0px, 0px);transform: translate(1170.6300048828125px, 264.11500549316406px) translate(-1170.6300048828125px, -264.11500549316406px) translate(0px, 0px);}#el_kzEiS-VDhwj_an_4P5jvX3oT{-webkit-transform: translate(1170.6300048828125px, 264.11500549316406px) rotate(0deg) translate(-1170.6300048828125px, -264.11500549316406px);transform: translate(1170.6300048828125px, 264.11500549316406px) rotate(0deg) translate(-1170.6300048828125px, -264.11500549316406px);}#el_svTYFqdWgv6_an_TPztRpS9q{-webkit-transform: translate(1008.6500244140625px, 378.2699890136719px) translate(-1008.6500244140625px, -378.2699890136719px) translate(0px, 0px);transform: translate(1008.6500244140625px, 378.2699890136719px) translate(-1008.6500244140625px, -378.2699890136719px) translate(0px, 0px);}#el_9dNKRJoBZM-_an_uv4y59Nro{-webkit-transform: translate(184.36499786376953px, 296.4199981689453px) translate(-184.36499786376953px, -296.4199981689453px) translate(0px, 0px);transform: translate(184.36499786376953px, 296.4199981689453px) translate(-184.36499786376953px, -296.4199981689453px) translate(0px, 0px);}#el_ODSKRYC3rMo_an_X7akuWB5Z{-webkit-transform: translate(57.95000076293945px, 356.44000244140625px) translate(-57.95000076293945px, -356.44000244140625px) translate(0px, 0px);transform: translate(57.95000076293945px, 356.44000244140625px) translate(-57.95000076293945px, -356.44000244140625px) translate(0px, 0px);}#el_GOygZV8GJSC_an_bbHQatRZi-{-webkit-transform: translate(218.39500427246094px, 412.11000061035156px) translate(-218.39500427246094px, -412.11000061035156px) translate(0px, 0px);transform: translate(218.39500427246094px, 412.11000061035156px) translate(-218.39500427246094px, -412.11000061035156px) translate(0px, 0px);}#el_qJem8KHu3tM_an_ajws9DrDf{-webkit-transform: translate(976.9349975585938px, 461.4550018310547px) translate(-976.9349975585938px, -461.4550018310547px) translate(0px, 0px);transform: translate(976.9349975585938px, 461.4550018310547px) translate(-976.9349975585938px, -461.4550018310547px) translate(0px, 0px);}#el_RevE0qkmC3T_an_8JZr-GlAC{-webkit-transform: translate(704.969970703125px, 513.739990234375px) translate(-704.969970703125px, -513.739990234375px) translate(0px, 0px);transform: translate(704.969970703125px, 513.739990234375px) translate(-704.969970703125px, -513.739990234375px) translate(0px, 0px);}#el_n9kMmwXaw07_an_f0pOV6vWL{-webkit-transform: translate(545.3699951171875px, 190.64999389648438px) translate(-545.3699951171875px, -190.64999389648438px) translate(0px, 0px);transform: translate(545.3699951171875px, 190.64999389648438px) translate(-545.3699951171875px, -190.64999389648438px) translate(0px, 0px);}#el_LDUOWKexa_G_an_k6Llt7M1q{-webkit-transform: translate(638.3800048828125px, 580.4199829101562px) translate(-638.3800048828125px, -580.4199829101562px) translate(0px, 0px);transform: translate(638.3800048828125px, 580.4199829101562px) translate(-638.3800048828125px, -580.4199829101562px) translate(0px, 0px);}#el_ry7y1Vd4WA6_an_xGo6-levb{-webkit-transform: translate(965.280029296875px, 219.25999450683594px) translate(-965.280029296875px, -219.25999450683594px) translate(0px, 0px);transform: translate(965.280029296875px, 219.25999450683594px) translate(-965.280029296875px, -219.25999450683594px) translate(0px, 0px);}#el_NDQIkntftM9_an_LQyCmnEtz{-webkit-transform: translate(853.530029296875px, 364.8999938964844px) translate(-853.530029296875px, -364.8999938964844px) translate(0px, 0px);transform: translate(853.530029296875px, 364.8999938964844px) translate(-853.530029296875px, -364.8999938964844px) translate(0px, 0px);}#el_HOUfSk4JVWf_an_GVVrBZqhd{-webkit-transform: translate(238.6699981689453px, 221.55999755859375px) translate(-238.6699981689453px, -221.55999755859375px) translate(0px, 0px);transform: translate(238.6699981689453px, 221.55999755859375px) translate(-238.6699981689453px, -221.55999755859375px) translate(0px, 0px);}#el_OoI_E9jrTxh_an_NTwbrZk_S{-webkit-transform: translate(964.7899780273438px, 539.0700073242188px) translate(-964.7899780273438px, -539.0700073242188px) translate(0px, 0px);transform: translate(964.7899780273438px, 539.0700073242188px) translate(-964.7899780273438px, -539.0700073242188px) translate(0px, 0px);}#el_UERaxRd55MH_an_ql41GZp3Ds{-webkit-transform: translate(381.9700012207031px, 433.3699951171875px) translate(-381.9700012207031px, -433.3699951171875px) translate(0px, 0px);transform: translate(381.9700012207031px, 433.3699951171875px) translate(-381.9700012207031px, -433.3699951171875px) translate(0px, 0px);}#el__kI5pBGfqi1_an_kcUKvemF-{-webkit-transform: translate(511.1600036621094px, 504.75px) translate(-511.1600036621094px, -504.75px) translate(0px, 0px);transform: translate(511.1600036621094px, 504.75px) translate(-511.1600036621094px, -504.75px) translate(0px, 0px);}#el_8uVFBcsJcR2_an__gkGYPJNT{-webkit-transform: translate(735.6150207519531px, 119.79500198364258px) translate(-735.6150207519531px, -119.79500198364258px) translate(0px, 0px);transform: translate(735.6150207519531px, 119.79500198364258px) translate(-735.6150207519531px, -119.79500198364258px) translate(0px, 0px);}#el_FmxUGv-bzS_an_F81IIaQY8{-webkit-transform: translate(875.260009765625px, 169.87999725341797px) translate(-875.260009765625px, -169.87999725341797px) translate(0px, 0px);transform: translate(875.260009765625px, 169.87999725341797px) translate(-875.260009765625px, -169.87999725341797px) translate(0px, 0px);}#el_7clk6mv4hZ_an_nLs7cU9th{-webkit-transform: translate(370.24501037597656px, 566.7899780273438px) translate(-370.24501037597656px, -566.7899780273438px) translate(0px, 0px);transform: translate(370.24501037597656px, 566.7899780273438px) translate(-370.24501037597656px, -566.7899780273438px) translate(0px, 0px);}#el_bHc0SFQPyr_an_NetuZhICj{-webkit-transform: translate(707.5149841308594px, 425.2099914550781px) translate(-707.5149841308594px, -425.2099914550781px) translate(0px, 0px);transform: translate(707.5149841308594px, 425.2099914550781px) translate(-707.5149841308594px, -425.2099914550781px) translate(0px, 0px);}#el_sN0ZTijFJx_an_00p7aE4hH{-webkit-transform: translate(290.7300109863281px, 151.52000427246094px) translate(-290.7300109863281px, -151.52000427246094px) translate(0px, 0px);transform: translate(290.7300109863281px, 151.52000427246094px) translate(-290.7300109863281px, -151.52000427246094px) translate(0px, 0px);}#el_PHknFCbp_-_an_EYUbJnKxc{-webkit-transform: translate(306.875px, 95.81499862670898px) translate(-306.875px, -95.81499862670898px) translate(0px, 0px);transform: translate(306.875px, 95.81499862670898px) translate(-306.875px, -95.81499862670898px) translate(0px, 0px);}#el_bXOJQK1XU8_an_PvJOCqQBj{-webkit-transform: translate(928.1950073242188px, 513.1100158691406px) translate(-928.1950073242188px, -513.1100158691406px) translate(0px, 0px);transform: translate(928.1950073242188px, 513.1100158691406px) translate(-928.1950073242188px, -513.1100158691406px) translate(0px, 0px);}#el_FnW1sP_iJz_an_v12SMtW11{-webkit-transform: translate(966.219970703125px, 101.91000366210938px) translate(-966.219970703125px, -101.91000366210938px) translate(0px, 0px);transform: translate(966.219970703125px, 101.91000366210938px) translate(-966.219970703125px, -101.91000366210938px) translate(0px, 0px);}#el_J1s_EHzdPa_an_BaKll3JwG{-webkit-transform: translate(1073.1949462890625px, 160.30999755859375px) translate(-1073.1949462890625px, -160.30999755859375px) translate(0px, 0px);transform: translate(1073.1949462890625px, 160.30999755859375px) translate(-1073.1949462890625px, -160.30999755859375px) translate(0px, 0px);}#el_TeG5DmQmz-_an_5yiu7bi38{-webkit-transform: translate(899.4400024414062px, 59.02000045776367px) translate(-899.4400024414062px, -59.02000045776367px) translate(0px, 0px);transform: translate(899.4400024414062px, 59.02000045776367px) translate(-899.4400024414062px, -59.02000045776367px) translate(0px, 0px);}#el_ArFYFFgzPV_an_CNMGZeQwY{-webkit-transform: translate(686.7100219726562px, 89.22999954223633px) translate(-686.7100219726562px, -89.22999954223633px) translate(0px, 0px);transform: translate(686.7100219726562px, 89.22999954223633px) translate(-686.7100219726562px, -89.22999954223633px) translate(0px, 0px);}#el_cBTdx7J3g-_an_uPnmv_rA0{-webkit-transform: translate(131.8800048828125px, 156.16000366210938px) translate(-131.8800048828125px, -156.16000366210938px) translate(0px, 0px);transform: translate(131.8800048828125px, 156.16000366210938px) translate(-131.8800048828125px, -156.16000366210938px) translate(0px, 0px);}#el_YGgnNYBBZM_an_Fuk6LcP9o{-webkit-transform: translate(453.1400146484375px, 160.48001098632812px) translate(-453.1400146484375px, -160.48001098632812px) translate(0px, 0px);transform: translate(453.1400146484375px, 160.48001098632812px) translate(-453.1400146484375px, -160.48001098632812px) translate(0px, 0px);}</style><defs><linearGradient id="linear-gradient" x1="552.49" y1="439.8" x2="552.49" y2="19.96" gradientTransform="translate(130.14 -28.61) rotate(10.37)" gradientUnits="userSpaceOnUse"><stop offset="0" stop-color="#a32cdf"/><stop offset="0.2" stop-color="#8b36dd"/><stop offset="0.62" stop-color="#4e50d7"/><stop offset="1" stop-color="#106ad2"/></linearGradient></defs><title>lose_1</title><g id="el_fB0rFo6mCX"><g id="el_wxylNrMHaD" data-name="Layer 2"><g id="el_TKuAf0XpRp" data-name="Layer 1"><path d="M344.92,534.65a70.85,70.85,0,0,1-19.6-1.11,67.54,67.54,0,0,1-23.07-9.25A54,54,0,0,1,283,502.88a46.5,46.5,0,0,1-4.55-13.13,43.22,43.22,0,0,1-.89-6.12,18.29,18.29,0,0,1,24.17-18.55,28.17,28.17,0,0,0,10.31,1.6c.23,0,.48,0,.73-.05a24,24,0,0,0,8.85-2.78,25.67,25.67,0,0,0,11.31-10.49c.41-.75.8-1.52,1.17-2.3a65.46,65.46,0,0,1-5.4,4.13,38.34,38.34,0,0,1-6,3.86,39.06,39.06,0,0,1-13.1,3.95l-1.39.14a37.71,37.71,0,0,1-14.72-1.79,41.3,41.3,0,0,1-15.25-9.12,54.74,54.74,0,0,1-11.63-15.78,72.7,72.7,0,0,1-6.75-21.89c-1.12-7.07-1.94-14.77-2.42-22.87-.47-7.75-.79-16-1-24.45-.17-7.83-.57-15.64-1.22-23.21a199.29,199.29,0,0,0-2.86-20.94,55.48,55.48,0,0,0-4.84-14.58c-3.06-5.93-6.48-7.52-9.12-8.24a14.33,14.33,0,0,0-5.15-.43,30.08,30.08,0,0,0-10.94,3.53,29.54,29.54,0,0,0-3.79,2.27c-1.67,1.21-3.13,2.3-4.43,3.3a18.3,18.3,0,0,1-29.3-12.46,70.23,70.23,0,0,1,1.81-25.73l.06-.24a75.11,75.11,0,0,1,11-22.53c5.81-8.38,14.57-15.61,26-21.5A66.14,66.14,0,0,1,248.32,219a51.47,51.47,0,0,1,10.09.12,66.94,66.94,0,0,1,28.19,9.59A82.78,82.78,0,0,1,307,246.63a109.66,109.66,0,0,1,12.7,18.92c4.79,9.33,8,20.36,9.64,32.77.18,1.41.36,2.83.52,4.25.3-2.38.68-4.7,1.14-6.94a59,59,0,0,1,8-20.12,45.35,45.35,0,0,1,17.71-15.9,41,41,0,0,1,15.42-4.75,31.16,31.16,0,0,1,6,.08,37.63,37.63,0,0,1,15.08,4.89l.2.12a37.94,37.94,0,0,1,11.45,10.93,96.34,96.34,0,0,1,14.51-15.73,73,73,0,0,1,23.68-13.79A43.57,43.57,0,0,1,453.77,239,34.42,34.42,0,0,1,466,240.1a41.19,41.19,0,0,1,16.52,9,49.22,49.22,0,0,1,10.66,13.74c.53,1,1,2,1.52,3,1.74-4.6,3.54-8.92,5.39-12.92a114.6,114.6,0,0,1,9.37-17c3.4-4.94,8.93-11.71,17.71-13.58a26.12,26.12,0,0,1,3.24-.48,22.46,22.46,0,0,1,23.07,13.94c1.1-2.56,2.19-4.94,3.28-7.11,4.67-9.37,11.09-15,19-16.67a30.65,30.65,0,0,1,3.58-.53c12.69-1.06,23.06,6.9,25.8,19.83.77,3.61.52,7.21-.09,11.49-.38,2.62-.83,5.82-1.37,9.61-.18,1.31-.36,2.67-.55,4.1a25.15,25.15,0,0,1,8.76-11.76,22.55,22.55,0,0,1,11.33-4.29,21,21,0,0,1,7.81.82,22.15,22.15,0,0,1,13.69,12.09,25.37,25.37,0,0,1,1.34,17.26q-1.55,6.79-3.5,15.63c-1.4,6.29-3,12.86-4.84,19.52-.38,1.4-.78,2.8-1.18,4.2a53.21,53.21,0,0,1,9.17-1.57c1.55-.12,3.15-.2,4.76-.21a90.51,90.51,0,0,1,9.13.45,128.6,128.6,0,0,0,12-17.6c5.26-9.14,10.59-19.19,15.85-29.87s10.89-22.34,16.62-34.39c5.82-12.24,12-24.37,18.27-36.07,6.42-11.91,13.29-23.45,20.42-34.28a184.33,184.33,0,0,1,24.69-30.36,123.48,123.48,0,0,1,30.09-21.93,82.73,82.73,0,0,1,31-8.81c2.3-.19,4.65-.3,7-.31a62,62,0,0,1,27.33,6,70.41,70.41,0,0,1,34.36,35.2,58.77,58.77,0,0,1,5.24,23.44,62.18,62.18,0,0,1-1.18,12.83,58.88,58.88,0,0,1-2.87,9.87,49.56,49.56,0,0,1-4.54,9.43,18.3,18.3,0,0,1-14,8.51l-.78,0a18.28,18.28,0,0,1-15.4-7.32,20.08,20.08,0,0,0-4.6-4.36,35.27,35.27,0,0,0-7.44-3.85,24.59,24.59,0,0,0-9.17-1.31c-.93,0-1.85,0-2.74.12a32.31,32.31,0,0,0-15.52,5.53,94.41,94.41,0,0,0-20.36,18.91,221,221,0,0,0-20,29.25c-6.7,11.58-13.28,23.54-19.56,35.55-6.48,12.4-13.1,24.69-19.67,36.53-4.19,7.55-8.5,14.66-12.88,21.26,6.54,2.62,13.21,5.37,20,8.23,5.76,2.45,11.55,4.81,17.32,7.08a44.6,44.6,0,0,1-7.68-11.28,54.93,54.93,0,0,1-5.05-18.26,71.8,71.8,0,0,1,.24-16.55A91.38,91.38,0,0,1,764,274.54a130,130,0,0,1,13.4-22.94,128.35,128.35,0,0,1,18.45-20.25,131.77,131.77,0,0,1,21.84-15.76,97.25,97.25,0,0,1,25-10.15,77.54,77.54,0,0,1,12-2,71.06,71.06,0,0,1,15.37.37c8.48,1.14,15.55,4.25,21,9.24a41.1,41.1,0,0,1,10.65,15.52,49.35,49.35,0,0,1,3.3,17.07c0,1,0,1.9,0,2.84,1.41-1.63,2.7-3.11,3.85-4.42l.8-.94c1.52-2.64,3.56-5.77,6.19-9.5a79.08,79.08,0,0,1,12.82-14,64.56,64.56,0,0,1,18.84-11.29,43.35,43.35,0,0,1,12.2-2.82,49.78,49.78,0,0,1,15.78,1.3c12.55,3,18.16,10.14,20.65,15.61a29.74,29.74,0,0,1,2,19.29A41.05,41.05,0,0,1,993,253.93a114.85,114.85,0,0,1,17.88-6.49,75.18,75.18,0,0,1,13.48-2.41,60.9,60.9,0,0,1,24.62,2.83c7.23,2.43,13,6.07,17,10.81a34.41,34.41,0,0,1,7.5,14.32,33.14,33.14,0,0,1,.24,14.62,66.09,66.09,0,0,1-1.86,7.07c-.41,1.23-.88,2.45-1.4,3.68a21.58,21.58,0,0,1,14.57,6.76,22.26,22.26,0,0,1,5.67,17.4,26.27,26.27,0,0,1-6.77,15l-.46.51q-4.83,5.13-11.13,11.85c-4.48,4.8-9.4,9.69-14.61,14.55a166.7,166.7,0,0,1-18.1,14.59,104.75,104.75,0,0,1-22.33,11.92,86.66,86.66,0,0,1-24.08,5.51l-1.92.14a77.13,77.13,0,0,1-29.5-4.18,51.7,51.7,0,0,1-18.95-11.22,55.74,55.74,0,0,1-12.36-16.74l-.36-.76A62.7,62.7,0,0,1,906.89,371c-.73.08-1.47.16-2.2.22-1.68.14-3.36.22-5,.23l.17.3a60,60,0,0,1,4.14,9.66,49.17,49.17,0,0,1,2.4,15.55,55.31,55.31,0,0,1-3,17.77A52.47,52.47,0,0,1,893,432.69a54.16,54.16,0,0,1-19.23,13.68,63.27,63.27,0,0,1-20.13,4.83h0c-2.25.18-4.6.29-7,.3a125.38,125.38,0,0,1-37.72-5.94,336.18,336.18,0,0,1-36.48-13.78c-12.06-5.35-24.32-11.28-36.43-17.62-11.49-6-22.89-11.64-33.9-16.7a295.56,295.56,0,0,0-30.94-12.28A74.87,74.87,0,0,0,647.47,381c-.64,0-1.25,0-1.81.07a8.37,8.37,0,0,0-2.74.55,6.3,6.3,0,0,0-2.21,2.31,18.3,18.3,0,0,1-12.28,8.74,19.43,19.43,0,0,1-2,.28,18.3,18.3,0,0,1-12.68-3.73,35.86,35.86,0,0,1-8.1-8.85,43,43,0,0,1-4.53-9.08c-.16-.43-.3-.85-.44-1.29a42.68,42.68,0,0,1-18.41,6,33.16,33.16,0,0,1-20.13-4.53,42.46,42.46,0,0,1-5.89-4.29,57.21,57.21,0,0,1-10.15,10.24,44.13,44.13,0,0,1-18.19,8.41,33.81,33.81,0,0,1-4.4.65,38.38,38.38,0,0,1-8.74-.29,34.28,34.28,0,0,1-14.4-5.72,37.65,37.65,0,0,1-8.37-7.93,108.54,108.54,0,0,1-8.63,14.41c-9.3,13.09-20.82,22.1-34.24,26.78a52.34,52.34,0,0,1-12.83,2.81,42.28,42.28,0,0,1-11.61-.6,47.23,47.23,0,0,1-10.7-3.4q.44,6.11.69,12.16a181.56,181.56,0,0,1-2.4,39.59,107.12,107.12,0,0,1-13.06,36A72.52,72.52,0,0,1,369.3,528a64.67,64.67,0,0,1-20.53,6.21C347.49,534.4,346.2,534.55,344.92,534.65Zm466.4-174q4.29,1.23,8.48,2.31a104.49,104.49,0,0,0,26.27,3.69c2.43,0,4.69-.11,6.73-.28a34.19,34.19,0,0,0,8.61-1.59,27.61,27.61,0,0,0,4.18-1.87,44.15,44.15,0,0,1-9-6.85,47.28,47.28,0,0,1-7.41-9.48q-4.38,2.89-9,5.3a75.34,75.34,0,0,1-28.76,8.76Z" id="el_v5k_nlDPKsD"/><path d="M385.56,271.22q-6,3-7.22,12.83t.22,24.18q1.5,14.37,4.32,32.22t5.24,36.76q2.4,18.92,3.14,37.82a163.47,163.47,0,0,1-2.3,35.6,88.43,88.43,0,0,1-10.91,29.84,54.36,54.36,0,0,1-22.65,20.68,46.07,46.07,0,0,1-14.74,4.31,52,52,0,0,1-17.38-.6A49.22,49.22,0,0,1,306.47,498a35.82,35.82,0,0,1-12.72-14.35,27.27,27.27,0,0,1-2.82-8.28,23.7,23.7,0,0,1-.58-3.87,46.62,46.62,0,0,0,16.89,2.65,41.08,41.08,0,0,0,17.28-4.77q12.8-6.51,19.08-17.9a70.62,70.62,0,0,0,8.07-25.61,149.27,149.27,0,0,0,.45-30.49q-1.33-16.26-3.55-32.62a176,176,0,0,1-14.16,40.38q-9.11,18.09-21.78,26.48A21.23,21.23,0,0,1,309.1,432a20.63,20.63,0,0,1-7,2,18.87,18.87,0,0,1-8.25-.94,23.17,23.17,0,0,1-8.5-5.25,37.47,37.47,0,0,1-7.66-10.68,54.77,54.77,0,0,1-4.87-16.4q-1.5-9.78-2.14-21.12t-.82-23.73q-.21-12.39-1.17-24.39a216.52,216.52,0,0,0-3-22.89,72.63,72.63,0,0,0-6.44-19.48q-7.06-13.89-20.49-17.62t-29.29,4.36a46.34,46.34,0,0,0-6.17,3.69q-2.64,1.9-4.84,3.57a51.64,51.64,0,0,1,1.41-19,56.72,56.72,0,0,1,8.46-16.93q6.19-8.83,19.42-15.57,13-6.63,24.37-5.32a48.63,48.63,0,0,1,20.52,7.05,64.08,64.08,0,0,1,15.86,14A90.6,90.6,0,0,1,299,263.08q5.71,11.25,7.65,26.78a281.39,281.39,0,0,1,2.1,32q.18,16.43-.6,32.09t-.2,27.17q.58,11.51,3.22,17.24t9.48,2.26c1.9-1,4.05-3.77,6.42-8.39A114.16,114.16,0,0,0,333.85,375a223.28,223.28,0,0,0,5.83-22.91q2.58-12.67,3.94-25.82-1-10.59-.95-20.15a85,85,0,0,1,1.66-17.47,40.78,40.78,0,0,1,5.56-13.9,27,27,0,0,1,10.73-9.47q6.39-3.26,11-2.72a19.54,19.54,0,0,1,7.78,2.47A20,20,0,0,1,385.56,271.22Zm229.91,20.35q2.67-9.66,4.72-18.67T623.83,257a7.62,7.62,0,0,0-.06-5.17,4.1,4.1,0,0,0-2.4-2.41,3.69,3.69,0,0,0-3.24.8c-1.18.84-2.11,2.42-2.81,4.75q-6.54,20.82-12.69,32.58t-13.18,13.23a9.48,9.48,0,0,1-6.51-.93q-3.12-1.62-4.57-8.65a53.1,53.1,0,0,1-.91-11.06q0-6.45.63-13.4t1.43-13.81c.57-4.58,1.12-8.78,1.68-12.61s1-7,1.41-9.64a18.9,18.9,0,0,0,.33-5.12q-1.37-6.54-7.66-5.23-3.39.7-6.53,6.91a155.73,155.73,0,0,0-6.46,15.11q-3.33,8.91-6.61,19.32T549.08,281a104.38,104.38,0,0,1-7,15.22q-3.61,6.3-7.49,7.11c-2.43.5-4.31-.07-5.67-1.73a15.23,15.23,0,0,1-2.89-6.6,53,53,0,0,1-.46-16.84q1.1-9.31,2.81-18.14t3.33-15.6q1.62-6.78,1.12-9.21c-.81-3.87-2.9-5.46-6.3-4.76-1.78.37-3.92,2.38-6.45,6a98.16,98.16,0,0,0-7.91,14.27,200.57,200.57,0,0,0-7.88,19.84c-1.61,4.67-3,9.45-4.32,14.33a24,24,0,0,1-5.25,7q-6.11,5.5-12.9,5.48a116.13,116.13,0,0,0-1.65-13.17,90.17,90.17,0,0,0-3.36-12.84,72.57,72.57,0,0,0-4.36-10,31.21,31.21,0,0,0-6.65-8.71,22.92,22.92,0,0,0-9.21-5.08c-3.47-1-7.48-.7-12,.86a54.58,54.58,0,0,0-17.78,10.29,78.94,78.94,0,0,0-14.48,16.49,113.39,113.39,0,0,0-10.73,20.56,108.67,108.67,0,0,0-6.36,22.6,110.28,110.28,0,0,0-1.48,22.74,73.34,73.34,0,0,0,3.75,20.82A53.94,53.94,0,0,0,403,373a36.2,36.2,0,0,0,8.46,9.39,27.4,27.4,0,0,0,11.74,5.25q6.75,1.35,14.93-1.47,14.75-5.06,25.45-20a100.28,100.28,0,0,0,15.6-34.92,28,28,0,0,0-12.2-8.11,49.48,49.48,0,0,0-12.08-2.39,49.85,49.85,0,0,1-5.71,8.11,16.47,16.47,0,0,1-7.08,4.92q-5.85,2-9.24-1.4t-4.48-10a54.34,54.34,0,0,1-.06-15,85.17,85.17,0,0,1,3.57-16.27,52.37,52.37,0,0,1,6.76-13.83q4.22-6,9.35-7.8,6.09-2.08,9.33,2t4.26,11.62a11.2,11.2,0,0,0-8.86-1.8,13,13,0,0,0-7.62,4.46,12.82,12.82,0,0,0-2.7,8.9q.17,5.44,6,11.8,7.83,8.31,17.93,9.54a34.5,34.5,0,0,0,19.53-3.31,40.43,40.43,0,0,0,9.85-6.77c-.5,3.57-.88,7.13-1.11,10.67a78.24,78.24,0,0,0,1.19,21,35.13,35.13,0,0,0,4.11,11.28,21.64,21.64,0,0,0,5.9,6.48,16.17,16.17,0,0,0,6.76,2.77,18.86,18.86,0,0,0,6.68-.13A25.73,25.73,0,0,0,530,353.16a38.64,38.64,0,0,0,8.09-8.5,66.3,66.3,0,0,0,5.85-10.18,71.92,71.92,0,0,0,3.76-9.88q.17-4.08.5-7.94t.75-6.73a49.19,49.19,0,0,1,1-6.26q.11,3,.56,6.95t.8,6.91q.81,3.89,2.52,9.72a42.1,42.1,0,0,0,4.91,10.85,25,25,0,0,0,8.11,8q4.92,3,12,1.56a25.57,25.57,0,0,0,12.62-6.79,57.53,57.53,0,0,0,10-13.08,112.31,112.31,0,0,0,7.94-17.18Q612.79,301.23,615.47,291.57Zm88.31,31.23A268.22,268.22,0,0,0,724,291.59q9.87-17.58,19.61-36t20.11-36.16a238.93,238.93,0,0,1,21.84-31.59A112.45,112.45,0,0,1,810,165.38a50.47,50.47,0,0,1,28.32-8.58,42.32,42.32,0,0,1,16.08,2.69,53.58,53.58,0,0,1,11.15,5.92,38.14,38.14,0,0,1,8.67,8.4,30.89,30.89,0,0,0,3-6.19,40.09,40.09,0,0,0,2.09-7.06,43.44,43.44,0,0,0,.85-9,40.48,40.48,0,0,0-3.61-16.2,51.79,51.79,0,0,0-10-15.08,52.41,52.41,0,0,0-15.36-11.11,43.52,43.52,0,0,0-19.31-4.29,65.19,65.19,0,0,0-29.8,7,104.93,104.93,0,0,0-25.7,18.61A165.33,165.33,0,0,0,754,157.68q-10.37,15.6-19.73,32.82t-18,35.16q-8.62,18-16.89,34.55T682.82,291A136.31,136.31,0,0,1,665.66,315a168.78,168.78,0,0,1,17.69,2.44A131.15,131.15,0,0,1,703.78,322.8Zm175,49.44a23.15,23.15,0,0,0-4-5.44q-4.2,4-12.11,6.83t-21.53,2.88a121.37,121.37,0,0,1-30.93-4.4q-16.85-4.42-34.66-10.95t-35.9-14.29q-18.09-7.77-35-14.3T672.6,321.62q-15.09-4.42-26.73-4.41a33.42,33.42,0,0,0-15.09,3.24,33.81,33.81,0,0,0-10.5,7.94,32.17,32.17,0,0,0-6,10.15,28.91,28.91,0,0,0-2,9.65,21.57,21.57,0,0,0,1.13,7.3,24.41,24.41,0,0,0,2.6,5.32,17.35,17.35,0,0,0,4,4.44,24.57,24.57,0,0,1,8.52-8.67c3.55-2.15,8.2-3.23,14-3.24a93,93,0,0,1,29.45,5.27,314.33,314.33,0,0,1,32.81,13.18q16.95,7.89,34.67,17.26t35.28,17.26a314.49,314.49,0,0,0,34.42,13.18,106.5,106.5,0,0,0,32.17,5.27q11.88,0,19.92-3.5A35.88,35.88,0,0,0,874,412.33,34.12,34.12,0,0,0,881,400.69,36.92,36.92,0,0,0,883,388.81a31.18,31.18,0,0,0-1.38-9.77A42.38,42.38,0,0,0,878.8,372.24Zm58.72-59.83a39.64,39.64,0,0,1-7.89,16.16,44.78,44.78,0,0,1-13.16,10.93,44.15,44.15,0,0,1-16.53,5.14,51,51,0,0,1-17.86-1.16q-11.55-2.81-17.37-8.69a25.61,25.61,0,0,1-7.28-13,31.42,31.42,0,0,1,.45-14.41,43.83,43.83,0,0,1,5.74-13.12,35.8,35.8,0,0,1,3.88-4.93,34.06,34.06,0,0,1-15.42-5.63q-8.46-5.67-11.68-16.61-2.35-8.31,0-13.24a12.39,12.39,0,0,1,15.24-7.25,11.2,11.2,0,0,1,7.1,5.6q2.49-7.14,1.45-12.29t-7.41-6q-5.38-.75-11.87,2.72a52.87,52.87,0,0,0-12.28,9.29,85.08,85.08,0,0,0-10.53,12.9,53.83,53.83,0,0,0-6.73,13.43q-2,6.35-.52,10.92t7.61,5.43a16.5,16.5,0,0,0,8.54-1.19,51,51,0,0,0,8.76-4.65,48.52,48.52,0,0,1,9.69,7.59,27.88,27.88,0,0,1,7.23,12.74,100.39,100.39,0,0,1-29.7,24.11q-16.31,8.48-31.73,6.33c-5.73-.79-10.38-2.6-14-5.43a27.51,27.51,0,0,1-8.1-10,36.51,36.51,0,0,1-3.31-12.2,53.14,53.14,0,0,1,.22-12.33,72.53,72.53,0,0,1,6.06-20.27,110.2,110.2,0,0,1,11.59-19.62,108.85,108.85,0,0,1,15.88-17.28,113.73,113.73,0,0,1,18.86-13.5,78.88,78.88,0,0,1,20.37-8.16,54.42,54.42,0,0,1,20.52-1.15q7.11,1,11.09,4.66a22.87,22.87,0,0,1,5.92,8.69,31,31,0,0,1,2,10.77,71.9,71.9,0,0,1-.64,10.9,89,89,0,0,1-2.8,13,116.9,116.9,0,0,1-4.48,12.49c4,2.06,8.71,2.4,14,.94,8.55-2.37,19.16-15.22,20.36-16.48,1.71-1.79,3.39-3.64,5-5.53s3.11-3.57,4.41-5a32.6,32.6,0,0,0,2.35-2.87,94.2,94.2,0,0,1,5.86-9,60.54,60.54,0,0,1,9.91-10.71,46.16,46.16,0,0,1,13.57-8q7.68-3,17-.69,6.5,1.58,8.23,5.44a11.33,11.33,0,0,1,.86,7.47,24.17,24.17,0,0,1-5.22,9.93,54.82,54.82,0,0,1-8.63,8.22,74.51,74.51,0,0,1-9.53,6.21l-7.77,4.21a12.59,12.59,0,0,1,.57-3.93c.39-1.26.73-2.45,1-3.58a23,23,0,0,1,1.06-3.3,22.92,22.92,0,0,0-3,4.48q-1.23,2.39-2.29,4.67a32.12,32.12,0,0,0-1.82,5.41,38.31,38.31,0,0,0-1,10.33q.18,5.52.31,11.79c.09,4.18.07,8.64-.06,13.35A73.16,73.16,0,0,1,937.52,312.41Zm-24.71-46s-14.16,14.61-20.59,17.9a50.15,50.15,0,0,1-11.26,4.2,19.65,19.65,0,0,0-.29,2.17,9.2,9.2,0,0,0,1.75,5.9q2,2.9,9.18,4.65a17.34,17.34,0,0,0,8.19.34,13.21,13.21,0,0,0,5.84-3,15.6,15.6,0,0,0,3.86-5.42,40,40,0,0,0,2.3-6.83A74.18,74.18,0,0,0,912.81,266.41Zm155,47a8.39,8.39,0,0,1-2.34,4.56q-4.87,5.13-11.23,11.86t-13.78,13.6a149.11,149.11,0,0,1-16.17,12.92,87.34,87.34,0,0,1-18.49,9.77,68.68,68.68,0,0,1-20.57,4.36,58.86,58.86,0,0,1-22.51-3.36,33.58,33.58,0,0,1-12.28-7.32,37.15,37.15,0,0,1-11.8-25.2,38.68,38.68,0,0,1,2.1-15q4.71-13.81,15.95-26.85A119.17,119.17,0,0,1,982,270.56a101.41,101.41,0,0,1,29.2-13.18q15.09-4,27.5.23,6.09,2.07,8.89,5.38a16.19,16.19,0,0,1,3.59,6.71,14.8,14.8,0,0,1,.11,6.58,48.78,48.78,0,0,1-1.32,5,47.49,47.49,0,0,1-8.63,14.58,79.65,79.65,0,0,1-14.1,13.36,62.92,62.92,0,0,1-16.06,8.77q-8.2,3-14.75.72a19.75,19.75,0,0,1-7-4,25.55,25.55,0,0,1-4.66-5.5c-.47.88-.91,1.78-1.31,2.69s-.73,1.75-1,2.53q-2.88,8.43,2.13,14.84t15.67,7.7q10.68,1.29,25.89-4.24t32.77-21c1.78-1.65,3.4-2.54,4.83-2.66a3.71,3.71,0,0,1,3.21,1A4.11,4.11,0,0,1,1067.77,313.4ZM998,294.19c.57.36,1.08.67,1.52.91a9.89,9.89,0,0,0,1.6.67q4.68,1.61,11.08-1.06A55.31,55.31,0,0,0,1024,288a36.61,36.61,0,0,0,8.19-7.92c1.84-2.6,1.83-4.21,0-4.85q-1.41-.48-5.09.74a52.29,52.29,0,0,0-8.52,3.9q-4.83,2.67-10.25,6.31A93.69,93.69,0,0,0,998,294.19Z" id="el_hxVCyjyvtLL"/><path d="M969.75,221.85a9.32,9.32,0,0,0-2.6-2,10.69,10.69,0,0,0-3.12-.93,17.59,17.59,0,0,0-6.49.53,39.49,39.49,0,0,0-12,5.55,52.82,52.82,0,0,0-5.27,4c-1.68,1.42-3.33,2.89-5,4.36s-3.26,3-4.84,4.56-3.12,3.21-4.72,4.86l-.25-.17a38.51,38.51,0,0,1,7.73-11.4A47,47,0,0,1,944.33,223a41.09,41.09,0,0,1,12.9-5,18.78,18.78,0,0,1,7,0,11.48,11.48,0,0,1,3.26,1.28,9.73,9.73,0,0,1,2.53,2.38ZM353.23,367.15c1.51,11.41,3,22.82,3.56,34.27s.57,22.93-1.36,34.09a67.16,67.16,0,0,1-4.79,16.07,16,16,0,0,1-.89,1.87l-.94,1.84c-.65,1.21-1.43,2.34-2.11,3.52s-1.59,2.22-2.44,3.28l-1.35,1.53a12.16,12.16,0,0,1-1.41,1.46,36.63,36.63,0,0,1-13.93,8.44,66.57,66.57,0,0,1-16.67,3.05v.4a49,49,0,0,0,17.47-.75l2.17-.52,2.11-.77c.7-.26,1.41-.51,2.11-.79l2-1a21.38,21.38,0,0,0,2-1.08l1.89-1.26a30.1,30.1,0,0,0,3.58-2.81,14.39,14.39,0,0,0,1.63-1.59l1.55-1.66c1-1.16,1.84-2.41,2.74-3.62s1.58-2.57,2.27-3.9l1-2a22.06,22.06,0,0,0,.89-2.06,75.13,75.13,0,0,0,4.3-17.12c1.59-11.6,1.26-23.25.2-34.74s-3-22.88-5.16-34.18ZM290.57,421.6c-3.66-1.43-6.33-4.6-8.21-7.91A46.48,46.48,0,0,1,278.27,403a147.76,147.76,0,0,1-3.72-22.31c-1.55-14.94-1.81-30-2.57-44.81-.43-7.39-1.07-14.75-2.22-22a141.74,141.74,0,0,0-5.06-20.78c-2.18-6.58-5.07-12.78-9.81-17.56a34.56,34.56,0,0,0-8.15-6.26,59,59,0,0,0-10.09-4.25l.1-.89a33.78,33.78,0,0,1,22.58,6.21c6.74,4.9,11.34,12.25,14.06,19.69s3.75,15.3,4.26,22.92.68,15.19.62,22.72c-.21,15-.38,29.85.14,44.69a141.81,141.81,0,0,0,2.25,22,45.58,45.58,0,0,0,3.23,10.43c1.53,3.24,3.75,6.31,7,7.89ZM203.86,272.34a57.09,57.09,0,0,1,21.32-27.87,26.24,26.24,0,0,1,3.71-2.2,31.68,31.68,0,0,1,3.89-1.78c1.3-.55,2.57-1.15,3.88-1.62s2.54-1.15,3.85-1.6l1.93-.83,2-.69c.66-.23,1.33-.53,2-.73s1.36-.39,2.05-.62c1.38-.51,2.79-.72,4.26-1.13s3-.52,4.62-1l.19-.87a22.15,22.15,0,0,0-4.54-2.2,23.41,23.41,0,0,0-5-1.06,22.34,22.34,0,0,0-5.1-.12l-2.56.22-2.49.52c-.82.21-1.66.38-2.46.65s-1.58.61-2.36.92a25.34,25.34,0,0,0-4.45,2.38,45.56,45.56,0,0,0-4.05,3c-1.33,1-2.54,2.12-3.78,3.2a54.62,54.62,0,0,0-12,15.23,53.53,53.53,0,0,0-5.75,18ZM368.14,268a13.67,13.67,0,0,0-8.72,1.7A10.78,10.78,0,0,0,357.5,271a14.76,14.76,0,0,0-1.79,1.43,26.57,26.57,0,0,0-3,3.39c-3.66,4.86-4.72,10.77-5.62,16.27a77.47,77.47,0,0,0-.77,16.63,106.89,106.89,0,0,0,2.48,16.22l.66-.1a132.67,132.67,0,0,1,.19-16.09,89.35,89.35,0,0,1,2.66-15.53c1.38-5,3.86-9.51,6-13.79a31.22,31.22,0,0,1,4-6,23.51,23.51,0,0,1,6-4.75Zm87.91-15.13a21.7,21.7,0,0,0-11.37-.53,32.66,32.66,0,0,0-10.54,4.6c-6.45,4.21-11.73,9.88-16.31,15.93a117.92,117.92,0,0,0-19.14,41.25,81.08,81.08,0,0,0-2.37,23.25,70.33,70.33,0,0,0,4.88,22.88c3,7.25,7,14.37,13.33,19.72a24.22,24.22,0,0,0,11,5.5,18.45,18.45,0,0,0,11.7-1.67L437,383a19.28,19.28,0,0,1-10.27-1.4,22,22,0,0,1-7.78-6.08,42.12,42.12,0,0,1-5.48-8.59,64.16,64.16,0,0,1-3.87-9.67A117.71,117.71,0,0,1,405,336.69a66.7,66.7,0,0,1,.58-21.08,112.48,112.48,0,0,1,15.84-40.17c3.92-6.09,8.53-11.84,14.26-16.22a30.27,30.27,0,0,1,9.44-5,20.38,20.38,0,0,1,10.66-.42Zm4.51,32.5c-2-3.3-7.13-4.57-11.27-2.55a9.38,9.38,0,0,0-4.46,4.95,14.15,14.15,0,0,0-.79,6.27,17.11,17.11,0,0,0,4.74,9.94,32.89,32.89,0,0,0,8,6.29l.41-.53c-1-1.28-2.17-2.45-3.15-3.71a27.34,27.34,0,0,1-2.53-4c-1.46-2.67-2.41-5.58-2.13-8.12a6.18,6.18,0,0,1,1.35-3.19,21.58,21.58,0,0,1,2-2.23,11.48,11.48,0,0,1,7.49-2.56ZM875.7,224.8a21.67,21.67,0,0,0-9.38-6.45,32.4,32.4,0,0,0-11.38-1.63c-7.7.18-15.18,2.21-22.26,4.94a118,118,0,0,0-38,25,81,81,0,0,0-14.27,18.51,70.46,70.46,0,0,0-7.9,22c-1.29,7.73-1.6,15.91.94,23.78a24.18,24.18,0,0,0,6.46,10.48,18.46,18.46,0,0,0,10.82,4.74l.23-.86a19.31,19.31,0,0,1-8-6.6,22,22,0,0,1-3.41-9.27,41.71,41.71,0,0,1-.13-10.18,64.87,64.87,0,0,1,1.8-10.26,117.82,117.82,0,0,1,7-19.88,66.48,66.48,0,0,1,11.6-17.6,112.18,112.18,0,0,1,34.63-25.8,62.84,62.84,0,0,1,20.66-6.28,30.6,30.6,0,0,1,10.67.7,20.31,20.31,0,0,1,9.29,5.26Zm171.46,41.33a20.94,20.94,0,0,0-9-6.66,31.82,31.82,0,0,0-11.08-2,65.42,65.42,0,0,0-22,4.08,114.75,114.75,0,0,0-38,23.22,80.25,80.25,0,0,0-7.84,8.31,107.09,107.09,0,0,0-6.77,9.12,64.88,64.88,0,0,0-9.27,21.06,47.55,47.55,0,0,0-1.19,11.82,33.61,33.61,0,0,0,2.54,11.81,28.76,28.76,0,0,0,6.85,9.7,31,31,0,0,0,9.66,6l.47-.76c-5.54-4.78-9.6-10.61-11.07-16.94s-.69-13,1.32-19.37a109.57,109.57,0,0,1,13.75-27.64,72.32,72.32,0,0,1,6.58-8,108.31,108.31,0,0,1,34.61-24.14,61.87,61.87,0,0,1,20.39-5.48,29.62,29.62,0,0,1,10.4,1,19.59,19.59,0,0,1,8.89,5.45Zm-186.4-11.66c0-3.87-3.65-7.64-8.24-8.1a9.37,9.37,0,0,0-6.39,1.86,14.17,14.17,0,0,0-4,4.91,17.15,17.15,0,0,0-1.21,10.95,33.52,33.52,0,0,0,3.48,9.55l.63-.23c-.21-1.64-.56-3.23-.72-4.82a26.54,26.54,0,0,1-.06-4.71c.16-3,.89-6,2.46-8a6.25,6.25,0,0,1,2.83-2,20.61,20.61,0,0,1,2.9-.82,11.47,11.47,0,0,1,7.72,1.76ZM525.88,233.91a21,21,0,0,0-4.86,3.93,30.65,30.65,0,0,0-3.76,4.78C515,246,514.16,250,513,253.78s-2.2,7.61-3,11.47-1.48,7.74-1.85,11.67l.65.15c1.39-3.65,2.79-7.27,4.37-10.81s3.14-7.06,4.79-10.51,4-6.52,5.27-10.1a55.64,55.64,0,0,0,3.23-11.36Zm-24,68.16a25.24,25.24,0,0,0-3.75,7.15,43.31,43.31,0,0,0-1.94,7.73c-.9,5.25,0,10.59.77,15.81A44.86,44.86,0,0,0,501.8,348a19.11,19.11,0,0,0,5.36,6.17,12.21,12.21,0,0,0,7.63,2.3l0-.66a11.68,11.68,0,0,1-6.35-3.22,16.42,16.42,0,0,1-3.68-6,34.37,34.37,0,0,1-1.81-7,55.51,55.51,0,0,1-.72-7.31c-.18-4.94.67-9.84.57-14.76s-.07-9.86-.32-15.19Zm73.9-78.21a21,21,0,0,0-4.73,4.08,29.87,29.87,0,0,0-3.61,4.9c-2.13,3.44-2.87,7.48-3.93,11.29s-2,7.68-2.64,11.57-1.23,7.78-1.47,11.72l.65.12c1.28-3.69,2.56-7.36,4-10.94s2.9-7.16,4.45-10.65,3.82-6.66,4.94-10.27a55.53,55.53,0,0,0,2.87-11.46ZM554.84,301a18.78,18.78,0,0,0-1.57,3.37,24.71,24.71,0,0,0-.87,3.59,29.85,29.85,0,0,0-.25,7.31c.16,1.19.31,2.4.58,3.58s.68,2.33,1.08,3.47c.94,2.24,2,4.42,3.05,6.56a40.16,40.16,0,0,0,8.5,11.63c3.56,3.22,8.21,5.71,13,5.53l0-.67a18,18,0,0,1-10.61-7.14,42,42,0,0,1-6-11.46c-1.47-4.12-1.85-8.5-3-12.62s-2.14-8.31-3.22-13ZM847.62,114.33a43.61,43.61,0,0,0-16.72-5.25,48.94,48.94,0,0,0-17.83,1.8c-11.64,3.32-21.79,10.13-30.68,17.81a140.4,140.4,0,0,0-22.91,26.5c-6.53,9.64-12,19.89-17.29,30-10.57,20.3-20.41,40.84-30.46,61.28-5,10.26-9.94,20.49-15.08,30.64-2.57,5.07-5.2,10.11-7.93,15.09-1.41,2.45-2.69,5-4.22,7.38l-2.25,3.61-2.52,3.37.65.61,2.79-3.32,2.49-3.51c1.7-2.32,3.11-4.79,4.69-7.19q4.49-7.29,8.71-14.74c5.66-9.91,11.16-19.9,16.62-29.9,10.85-20,21.49-40.2,32.75-59.9,5.68-9.84,11.44-19.46,18.22-28.32a213.92,213.92,0,0,1,21.76-25A105.42,105.42,0,0,1,801,124.72a70.08,70.08,0,0,1,14.12-7.92,47,47,0,0,1,32.18-1.65Zm-63.87,253.2c-14.59-5.57-29.06-11.5-43.54-17.39l-43.5-17.55-21.85-8.7a69.5,69.5,0,0,0-23.81-5.21,43.22,43.22,0,0,0-12.44,1.5,31.54,31.54,0,0,0-11.46,5.59,21.8,21.8,0,0,0-8.64,16.46,25.22,25.22,0,0,0,.57,6l.67-.06a25.21,25.21,0,0,1,3-10.74,20.64,20.64,0,0,1,7.38-7.44c6.05-3.63,13.46-4.66,20.75-4.43a80.75,80.75,0,0,1,22,3.78c7.32,2.44,14.73,5.13,22.07,7.75L739.13,353c14.76,5.16,29.47,10.49,44.4,15.2Zm131.47-98.47a111.13,111.13,0,0,1-1.15,11.53,48.6,48.6,0,0,1-2.92,10.69,12.62,12.62,0,0,1-1.21,2.34,14.9,14.9,0,0,1-1.48,2.05c-.45.7-1.08,1.18-1.53,1.83-.23.31-.54.53-.78.83a6.26,6.26,0,0,1-.78.84,15.94,15.94,0,0,1-1.72,1.55c-.32.24-.62.53-.95.76s-.71.44-1.06.69a5.92,5.92,0,0,1-1.15.66l-1.22.66c-.85.45-1.77.76-2.73,1.31l0,.67a13.13,13.13,0,0,0,13-1.08,16.39,16.39,0,0,0,2.65-2.34,15.7,15.7,0,0,0,1.89-2.88,22.58,22.58,0,0,0,1.25-3.1,27.08,27.08,0,0,0,.9-3.09,42.77,42.77,0,0,0,1.18-12.19,79,79,0,0,0-1.5-11.78Zm-46.28,22.61a21.1,21.1,0,0,0-4.71,4.08,25.68,25.68,0,0,0-3.51,5.06c-2.05,3.65-2.4,8-2.5,12.21a26.89,26.89,0,0,0,2.42,12.23,29.67,29.67,0,0,0,7.29,9.53l.5-.45a30.83,30.83,0,0,1-4.65-10.18,25.94,25.94,0,0,1-.25-10.63c.62-3.53,2.43-6.66,3.35-10.15.51-1.74,1-3.53,1.49-5.4a42.29,42.29,0,0,0,1.14-5.94Zm166.63-14.89a22.5,22.5,0,0,1-5.92,8.34,41.83,41.83,0,0,1-8.16,6c-2.94,1.65-6.22,2.3-9,3.66a63,63,0,0,1-9.51,3.47l-.17.65a13,13,0,0,0,2.61,1.59,16.5,16.5,0,0,0,3,.81,17.68,17.68,0,0,0,6-.13c4-.69,7.18-3.28,10.12-5.63a37.06,37.06,0,0,0,7.73-8.24c2-3.13,3.76-6.63,4-10.35ZM986.06,336a15.75,15.75,0,0,0,8.42,7,29.21,29.21,0,0,0,10.92,1.9c7.39,0,14.18-2.72,20.58-5.49a99.36,99.36,0,0,0,18-10.5A84.18,84.18,0,0,0,1059,314.6l-.49-.46a90.85,90.85,0,0,1-16.28,11.95,94.82,94.82,0,0,1-18.14,8.31c-6.29,2.1-12.81,2.94-19,3.81-6.28.7-12.52.8-18.47-2.7Z" id="el_9O5XXRJBiSP"/></g></g></g></svg>