<svg xmlns="http://www.w3.org/2000/svg" xmlns:xlink="http://www.w3.org/1999/xlink" viewBox="0 0 124.44 124.44"><defs><style>.cls-1{fill:url(#linear-gradient);}.cls-2{fill:#ffd45a;}.cls-3{fill:#fbf37f;}.cls-3,.cls-4{fill-rule:evenodd;}.cls-4{fill:#fbee3d;}</style><linearGradient id="linear-gradient" y1="62.22" x2="124.44" y2="62.22" gradientUnits="userSpaceOnUse"><stop offset="0" stop-color="#2c2177"/><stop offset="0.12" stop-color="#312077"/><stop offset="0.25" stop-color="#3f1f76"/><stop offset="0.4" stop-color="#571c75"/><stop offset="0.56" stop-color="#781973"/><stop offset="0.72" stop-color="#a31471"/><stop offset="0.88" stop-color="#d60e6e"/><stop offset="1" stop-color="#ff0a6c"/></linearGradient></defs><title>coin ETH</title><g id="Layer_2" data-name="Layer 2"><g id="Layer_1-2" data-name="Layer 1"><circle class="cls-1" cx="62.22" cy="62.22" r="62.22"/><path class="cls-2" d="M62.22,0a62.22,62.22,0,1,0,62.22,62.22A62.29,62.29,0,0,0,62.22,0Zm0,109.94a47.72,47.72,0,1,1,47.72-47.72A47.77,47.77,0,0,1,62.22,109.94ZM97.53,28l8.13-8.13a60.88,60.88,0,0,1,12.07,17.8l-10.57,4.52A49.18,49.18,0,0,0,97.53,28Zm-1.06-1.06a49.36,49.36,0,0,0-14.2-9.63L86.8,6.71a61,61,0,0,1,17.8,12.08ZM80.89,16.69A48.79,48.79,0,0,0,63,13V1.52a60.36,60.36,0,0,1,22.45,4.6ZM61.47,13a48.83,48.83,0,0,0-17.92,3.67L39,6.12a60.4,60.4,0,0,1,22.45-4.6Zm-19.3,4.27A49.18,49.18,0,0,0,28,26.92l-8.13-8.13A60.91,60.91,0,0,1,37.65,6.71ZM26.92,28a49.18,49.18,0,0,0-9.63,14.19L6.71,37.65a60.91,60.91,0,0,1,12.08-17.8ZM16.69,43.55A48.83,48.83,0,0,0,13,61.47H1.52A60.4,60.4,0,0,1,6.12,39ZM13,63a48.79,48.79,0,0,0,3.67,17.92L6.12,85.42A60.36,60.36,0,0,1,1.52,63Zm4.27,19.3a49.36,49.36,0,0,0,9.63,14.2l-8.13,8.13A61,61,0,0,1,6.71,86.8ZM28,97.53a49.18,49.18,0,0,0,14.19,9.63l-4.52,10.57a60.88,60.88,0,0,1-17.8-12.07Zm15.57,10.23a49,49,0,0,0,17.92,3.67v11.5A60.4,60.4,0,0,1,39,118.33ZM63,111.43a49,49,0,0,0,17.92-3.67l4.53,10.57A60.36,60.36,0,0,1,63,122.93Zm19.3-4.27a49.36,49.36,0,0,0,14.2-9.63l8.13,8.13a61,61,0,0,1-17.8,12.07ZM97.53,96.47a49.36,49.36,0,0,0,9.63-14.2l10.57,4.53a61,61,0,0,1-12.07,17.8Zm10.23-15.58A49,49,0,0,0,111.43,63h11.5a60.36,60.36,0,0,1-4.6,22.45Zm3.67-19.42a49,49,0,0,0-3.67-17.92L118.33,39a60.4,60.4,0,0,1,4.6,22.45Z"/><path class="cls-3" d="M62.22,24,38.53,62.82,62.22,76.73,85.91,62.82ZM36.47,66.6l25.75,33.82L88,66.6,62.22,81.71Z"/><path class="cls-4" d="M62.22,100.42,88,66.6,62.22,81.71Zm23.69-37.6L62.22,24v52.7Z"/></g></g></svg>